<svg version="1.1" id="Layer_1" xmlns="http://www.w3.org/2000/svg" xmlns:xlink="http://www.w3.org/1999/xlink" x="0px" y="0px"
	 viewBox="0 0 28.3 28.3" style="enable-background:new 0 0 28.3 28.3;" xml:space="preserve">
<style type="text/css">
	.st0{fill:#C0C0C0;}
</style>
<path class="st0" d="M28.1,8.5l-9-4.5c0,0-0.1,0-0.1,0h0c-0.1,0-0.2,0.1-0.3,0.2l-5.5,9l6.2,10l8.8-14.4C28.3,8.7,28.3,8.5,28.1,8.5
	C28.2,8.5,28.1,8.5,28.1,8.5z"/>
<polygon class="st0" points="10.3,9.9 10.3,19.6 18.9,23.9 "/>
<path class="st0" d="M19.7,24.3l7.9,4c0.4,0.2,0.8,0,0.8-0.5V10.2L19.7,24.3z"/>
<path class="st0" d="M9.3,8.5L1,4.4L0.5,4.1c-0.1,0-0.1-0.1-0.2-0.1c-0.1,0-0.2,0-0.2,0.1C0,4.2,0,4.3,0,4.4v18.9
	c0,0.4,0.2,0.7,0.5,0.8l8.1,4.1c0.1,0.1,0.2,0.1,0.3,0.1c0.3,0,0.5-0.2,0.5-0.6V8.7C9.5,8.6,9.4,8.6,9.3,8.5z"/>
</svg>
