<svg xmlns="http://www.w3.org/2000/svg" viewBox="0 0 289.96 249.55"><defs><style>.cls-1{fill:#231f20;}</style></defs><title>Asset 1</title><g id="Layer_2" data-name="Layer 2"><g id="primary_Logo" data-name="primary Logo"><path class="cls-1" d="M287.84,46.25,196,.33A3.14,3.14,0,0,0,194.66,0h-.09a3.34,3.34,0,0,0-2.83,1.54l-56.61,92,63.2,102.7L288.72,49.34A2.18,2.18,0,0,0,287.84,46.25Z"/><polygon class="cls-1" points="105.2 61.2 105.2 160.33 193.31 204.38 105.2 61.2"/><path class="cls-1" d="M201,208.17l80.92,40.46c4.42,2.21,8,0,8-5v-180Z"/><path class="cls-1" d="M95.46,46.72,10.71,4.34,5.35,1.67A4.89,4.89,0,0,0,3.18,1.1,2.91,2.91,0,0,0,.87,2.15,4.35,4.35,0,0,0,0,5V198.4a10.63,10.63,0,0,0,5.35,8.66L88.63,248.7a7.34,7.34,0,0,0,3.26.85c2.81,0,4.77-2.17,4.77-5.81V48.65A2.16,2.16,0,0,0,95.46,46.72Z"/></g></g></svg>
