<svg version="1.1" id="Layer_1" xmlns="http://www.w3.org/2000/svg" xmlns:xlink="http://www.w3.org/1999/xlink" x="0px" y="0px"
	 viewBox="0 0 28.3 28.3" style="enable-background:new 0 0 28.3 28.3;" xml:space="preserve">
<style type="text/css">
	.st0{fill:#C0C0C0;}
</style>
<path class="st0" d="M28.3,8c-1.1,0.5-2.2,0.8-3.3,0.9c1.2-0.7,2.1-1.9,2.6-3.2c-1.1,0.7-2.4,1.2-3.7,1.4c-2.2-2.3-5.9-2.4-8.2-0.2
	c-1.5,1.4-2.1,3.5-1.7,5.5c-4.7-0.2-9-2.4-12-6C0.4,9,1.2,12.4,3.7,14.1c-0.9,0-1.8-0.3-2.6-0.7c0,2.8,1.9,5.2,4.7,5.8
	c-0.9,0.2-1.8,0.3-2.6,0.1c0.8,2.4,2.9,4,5.4,4c-2.4,1.9-5.5,2.7-8.6,2.4c2.6,1.7,5.7,2.6,8.9,2.7C18,28.4,25.4,21.1,25.5,12
	c0-0.3,0-0.7,0-1C26.6,10.2,27.6,9.2,28.3,8z"/>
</svg>
