<svg xmlns="http://www.w3.org/2000/svg" viewBox="0 0 24 19.5"><defs><style>.cls-1{fill:#fff;}</style></defs><title>Asset 1</title><g id="Layer_2" data-name="Layer 2"><g id="Layer_1-2" data-name="Layer 1"><path class="cls-1" d="M24,2.31a9.83,9.83,0,0,1-2.83.78A4.92,4.92,0,0,0,23.34.36a9.86,9.86,0,0,1-3.13,1.2A4.93,4.93,0,0,0,11.82,6,14,14,0,0,1,1.67.9,4.93,4.93,0,0,0,3.19,7.47,4.9,4.9,0,0,1,1,6.86a4.93,4.93,0,0,0,3.95,4.89,5,5,0,0,1-2.22.08,4.93,4.93,0,0,0,4.6,3.42,9.9,9.9,0,0,1-7.29,2A13.94,13.94,0,0,0,7.55,19.5a13.92,13.92,0,0,0,14-14.65A10,10,0,0,0,24,2.31Z"/></g></g></svg>