<svg version="1.1" id="Layer_1" xmlns="http://www.w3.org/2000/svg" xmlns:xlink="http://www.w3.org/1999/xlink" x="0px" y="0px"
	 viewBox="0 0 28.4 28.4" enable-background="new 0 0 28.4 28.4" xml:space="preserve">
<path fill-rule="evenodd" clip-rule="evenodd" fill="#C0C0C0" d="M14.2,0.7C6.3,0.7,0,7,0,14.9c0,6.3,4.1,11.6,9.7,13.4
	c0.7,0.1,1-0.3,1-0.7c0-0.3,0-1.2,0-2.4c-3.9,0.9-4.8-1.9-4.8-1.9c-0.6-1.6-1.6-2.1-1.6-2.1c-1.3-0.9,0.1-0.9,0.1-0.9
	c1.4,0.1,2.2,1.5,2.2,1.5c1.3,2.2,3.3,1.5,4.1,1.2c0.1-0.9,0.5-1.5,0.9-1.9c-3.1-0.4-6.5-1.6-6.5-7c0-1.5,0.6-2.8,1.5-3.8
	C6.4,10,6,8.5,6.7,6.6c0,0,1.2-0.4,3.9,1.5c1.1-0.3,2.3-0.5,3.5-0.5c1.2,0,2.4,0.2,3.5,0.5c2.7-1.8,3.9-1.5,3.9-1.5
	c0.8,2,0.3,3.4,0.1,3.8c0.9,1,1.5,2.3,1.5,3.8c0,5.4-3.3,6.6-6.5,7c0.5,0.4,1,1.3,1,2.6c0,1.9,0,3.4,0,3.9c0,0.4,0.3,0.8,1,0.7
	c5.6-1.9,9.7-7.2,9.7-13.4C28.3,7,22,0.7,14.2,0.7z"/>
</svg>
