<svg version="1.1" id="Layer_1" xmlns="http://www.w3.org/2000/svg" xmlns:xlink="http://www.w3.org/1999/xlink" x="0px" y="0px"
	 viewBox="0 0 28.3 28.3" style="enable-background:new 0 0 28.3 28.3;" xml:space="preserve">
<style type="text/css">
	.st0{fill:#C0C0C0;}
</style>
<path class="st0" d="M14.2,2.6c3.8,0,4.2,0,5.7,0.1c3.8,0.2,5.6,2,5.8,5.8c0.1,1.5,0.1,1.9,0.1,5.7c0,3.8,0,4.2-0.1,5.7
	c-0.2,3.8-2,5.6-5.8,5.8c-1.5,0.1-1.9,0.1-5.7,0.1c-3.8,0-4.2,0-5.7-0.1c-3.9-0.2-5.6-2-5.8-5.8c-0.1-1.5-0.1-1.9-0.1-5.7
	c0-3.8,0-4.2,0.1-5.7c0.2-3.8,2-5.6,5.8-5.8C9.9,2.6,10.4,2.6,14.2,2.6z M14.2,0c-3.8,0-4.3,0-5.8,0.1c-5.1,0.2-8,3.1-8.2,8.2
	C0,9.8,0,10.3,0,14.2s0,4.3,0.1,5.8c0.2,5.1,3.1,8,8.2,8.2c1.5,0.1,2,0.1,5.8,0.1s4.3,0,5.8-0.1c5.1-0.2,8-3.1,8.2-8.2
	c0.1-1.5,0.1-2,0.1-5.8s0-4.3-0.1-5.8c-0.2-5.1-3.1-8-8.2-8.2C18.5,0,18,0,14.2,0z M14.2,6.9c-4,0-7.3,3.3-7.3,7.3
	c0,4,3.3,7.3,7.3,7.3c4,0,7.3-3.3,7.3-7.3C21.5,10.2,18.2,6.9,14.2,6.9z M14.2,18.9c-2.6,0-4.7-2.1-4.7-4.7c0-2.6,2.1-4.7,4.7-4.7
	s4.7,2.1,4.7,4.7C18.9,16.8,16.8,18.9,14.2,18.9z M21.7,4.9c-0.9,0-1.7,0.8-1.7,1.7s0.8,1.7,1.7,1.7c0.9,0,1.7-0.8,1.7-1.7
	C23.4,5.7,22.7,4.9,21.7,4.9z"/>
</svg>
