<svg width="17" height="26" viewBox="0 0 17 26" version="1.1" xmlns="http://www.w3.org/2000/svg" xmlns:xlink="http://www.w3.org/1999/xlink" xmlns:figma="http://www.figma.com/figma/ns">
<g id="Canvas" transform="translate(878 149)" figma:type="canvas">
<g id="270c" figma:type="frame">
<g id="Vector" figma:type="vector">
<use xlink:href="#path0_fill" transform="translate(-867.287 -148.788)" fill="#FFDD67"/>
</g>
<g id="Vector" figma:type="vector">
<use xlink:href="#path1_fill" transform="translate(-866.862 -148.575)" fill="#EBA352"/>
</g>
<g id="Group" figma:type="frame">
<g id="Vector" figma:type="vector">
<use xlink:href="#path2_fill" transform="translate(-877.782 -137.526)" fill="#FFDD67"/>
</g>
<g id="Vector" figma:type="vector">
<use xlink:href="#path3_fill" transform="translate(-872.59 -148.986)" fill="#FFDD67"/>
</g>
</g>
<g id="Vector" figma:type="vector">
<use xlink:href="#path4_fill" transform="translate(-870.768 -149)" fill="#EBA352"/>
</g>
<g id="Group" figma:type="frame">
<g id="Vector" figma:type="vector">
<use xlink:href="#path5_fill" transform="translate(-878 -138.211)" fill="#FFDD67"/>
</g>
<g id="Vector" figma:type="vector">
<use xlink:href="#path6_fill" transform="translate(-874.561 -140.209)" fill="#FFDD67"/>
</g>
</g>
<g id="Group" figma:type="frame">
<g id="Vector" figma:type="vector">
<use xlink:href="#path7_fill" transform="translate(-877.306 -137.992)" fill="#EBA352"/>
</g>
<g id="Vector" figma:type="vector">
<use xlink:href="#path8_fill" transform="translate(-873.995 -139.947)" fill="#EBA352"/>
</g>
<g id="Vector" figma:type="vector">
<use xlink:href="#path9_fill" transform="translate(-871.358 -132.777)" fill="#EBA352"/>
</g>
<g id="Vector" figma:type="vector">
<use xlink:href="#path10_fill" transform="translate(-871.511 -137.183)" fill="#EBA352"/>
</g>
</g>
<g id="Vector" figma:type="vector">
<use xlink:href="#path11_fill" transform="translate(-871.559 -136.8)" fill="#FFDD67"/>
</g>
<g id="Group" figma:type="frame">
<g id="Vector" figma:type="vector">
<use xlink:href="#path12_fill" transform="translate(-875.565 -135.017)" fill="#EBA352"/>
</g>
<g id="Vector" figma:type="vector">
<use xlink:href="#path13_fill" transform="translate(-871.56 -135.187)" fill="#EBA352"/>
</g>
</g>
</g>
</g>
<defs>
<path id="path0_fill" d="M 0.042918 12.4964C -0.169361 13.4314 0.42502 14.409 1.4015 14.6215C 2.37799 14.834 3.35447 14.239 3.56675 13.3039L 6.15655 2.16821C 6.36883 1.23315 5.77445 0.255588 4.79796 0.0430744C 3.82148 -0.169439 2.845 0.425599 2.63272 1.36066L 0.042918 12.4964Z"/>
<path id="path1_fill" d="M 0.297191 13.8559C 1.31613 14.0684 2.25016 13.4734 2.50489 12.5383L 5.09469 1.40259C 5.22206 0.892557 5.09469 0.382524 4.7975 -3.775e-16C 5.68907 0.382524 5.98626 1.14757 5.81644 1.99763L 3.22664 13.1333C 3.01436 14.0684 2.03788 14.7059 1.06139 14.4509C 0.594381 14.3659 0.254735 14.1109 3.23912e-07 13.7709C 0.0424561 13.7709 0.169824 13.8134 0.297191 13.8559Z"/>
<path id="path2_fill" d="M 13.8915 2.33935C 13.8915 2.33935 10.1978 -1.31588 3.65963 0.511733C 3.65963 0.511733 -0.203841 1.19178 0.00843798 3.1469C 0.00843798 3.1469 -0.118929 7.99221 1.53685 10.8824C 4.04174 15.1752 13.6792 15.8552 16.0992 7.9072C 16.6086 6.3346 16.2265 2.08433 13.8915 2.33935Z"/>
<path id="path3_fill" d="M 2.11931 13.3322C 2.28913 14.3098 3.26561 14.9048 4.2421 14.7348C 5.21858 14.5648 5.89787 13.6298 5.72805 12.6522L 3.60526 1.43147C 3.43544 0.45391 2.45895 -0.141128 1.48247 0.028883C 0.505988 0.198894 -0.173304 1.13395 0.0389744 2.11152L 2.11931 13.3322Z"/>
<path id="path4_fill" d="M 1.52841 14.4934C 2.54735 14.3234 3.18418 13.3884 3.01436 12.4108L 0.891571 1.19008C 0.764204 0.680043 0.424558 0.255016 0 -1.8875e-15C 0.934027 -1.8875e-15 1.61332 0.595038 1.78314 1.44509L 3.90593 12.6658C 4.07575 13.6434 3.43892 14.5784 2.46243 14.7484C 1.99542 14.8334 1.57086 14.7484 1.18876 14.5359C 1.27367 14.5359 1.40104 14.5359 1.52841 14.4934Z"/>
<path id="path5_fill" d="M 0.0145706 2.00479C -0.112797 1.02722 0.608952 0.134666 1.62789 0.00715824L 1.67035 0.00715824C 2.64683 -0.0778472 3.58086 0.602197 3.66577 1.62226L 3.96296 4.38494C 4.09032 5.3625 3.36858 6.25506 2.34964 6.38257L 2.30718 6.38257C 1.28824 6.46757 0.396672 5.78753 0.311761 4.76746L 0.0145706 2.00479Z"/>
<path id="path6_fill" d="M 0.0145708 2.00479C -0.112797 1.02722 0.608951 0.134667 1.62789 0.00715873L 1.67035 0.00715873C 2.68928 -0.0778467 3.58086 0.602196 3.66577 1.62226L 3.96296 4.38494C 4.09032 5.3625 3.36858 6.25506 2.34964 6.38257L 2.30718 6.38257C 1.28824 6.46757 0.396672 5.78753 0.311761 4.76746L 0.0145708 2.00479Z"/>
<path id="path7_fill" d="M 1.06139 5.56785C 2.08033 5.44035 2.75962 4.59029 2.67471 3.57023L 2.37752 0.807551C 2.33507 0.552535 2.2077 0.255016 2.08033 -1.62135e-07C 2.71717 0.297519 2.92945 0.807552 3.01436 1.40259L 3.31155 4.16527C 3.43892 5.14283 2.71717 6.03538 1.74069 6.12039C 1.01894 6.2054 0.339646 5.82287 1.61956e-07 5.27034C 0.254735 5.48285 0.636837 5.61036 1.06139 5.56785Z"/>
<path id="path8_fill" d="M 1.14631 5.52535C 2.16524 5.39784 2.88699 4.54779 2.75962 3.57023L 2.46243 0.807552C 2.41998 0.552536 2.29261 0.212513 2.16524 -3.2427e-07C 2.75962 0.340021 3.01436 0.850055 3.09927 1.44509L 3.39646 4.20777C 3.52383 5.18533 2.80208 6.03538 1.78314 6.16289L 1.74069 6.16289C 1.01894 6.2479 0.339646 5.86537 -1.61956e-07 5.31284C 0.339646 5.48285 0.721748 5.56785 1.14631 5.52535Z"/>
<path id="path9_fill" d="M 5.85451 0.268446C 3.81663 -0.709116 -0.811047 0.990992 0.12298 5.24126C 0.12298 0.820982 4.11382 0.0559327 5.85451 0.268446Z"/>
<path id="path10_fill" d="M 5.24288 0.295983C 3.75693 -0.596574 3.50219 0.806015 0.997304 0.89102C -0.106546 0.933523 -0.57356 3.18617 1.08221 3.99372C 3.37483 5.14129 3.54465 3.52619 4.13903 4.16373C 4.73341 4.84377 5.28534 4.97128 5.79481 5.73633C 6.17691 6.28886 9.02144 5.43881 9.31863 4.29124C 9.87056 2.03859 7.53549 1.69857 5.24288 0.295983Z"/>
<path id="path11_fill" d="M 5.46134 0.295982C 3.93293 -0.596574 3.63574 0.806015 1.04594 0.89102C -0.100364 0.933523 -0.609833 3.27117 1.13085 4.12123C 3.50838 5.3113 3.72066 3.61119 4.27258 4.29124C 4.90942 4.97128 5.46134 5.14129 6.01327 5.94884C 6.39537 6.54388 5.37643 8.75402 5.37643 8.75402C 5.37643 8.75402 8.30588 10.8367 8.90026 9.64658C 10.0041 7.43644 9.70692 5.73633 9.66446 4.46125C 9.57955 1.44356 7.88132 1.74107 5.46134 0.295982Z"/>
<path id="path12_fill" d="M 12.3971 6.4854e-07C 14.0104 0.765049 13.9255 4.97282 12.7367 7.01295C 9.72237 12.0708 3.09927 11.9858 3.23912e-07 9.26559C 2.88699 12.3683 9.93465 12.6658 13.2037 7.43797C 14.5199 5.35534 14.9444 0.510033 12.3971 6.4854e-07Z"/>
<path id="path13_fill" d="M 5.67484 4.37778C 5.80221 4.54779 5.75975 4.88781 5.7173 5.27034C 5.88712 4.6753 6.01449 4.08026 5.84466 3.82524C 5.3352 3.01769 5.038 2.84768 4.40117 2.16764C 3.80679 1.5301 3.63696 3.1877 1.25944 1.99763C 0.36787 1.5726 0.0706792 0.722546 0.155591 0C -0.184055 0.765049 -0.0142327 1.95512 1.13207 2.55016C 3.5096 3.74024 3.72188 2.04013 4.2738 2.72017C 4.86818 3.40022 5.16537 3.57023 5.67484 4.37778Z"/>
</defs>
</svg>
