<?xml version="1.0" encoding="UTF-8" standalone="no"?>
<svg width="106px" height="96px" viewBox="0 0 106 96" version="1.1" xmlns="http://www.w3.org/2000/svg" xmlns:xlink="http://www.w3.org/1999/xlink">
    <!-- Generator: sketchtool 40.2 (33826) - http://www.bohemiancoding.com/sketch -->
    <title>80B244D5-8E87-48F1-9981-A4A6F684AA4D</title>
    <desc>Created with sketchtool.</desc>
    <defs></defs>
    <g id="landingpage" stroke="none" stroke-width="1" fill="none" fill-rule="evenodd">
        <g id="home" transform="translate(-631.000000, -216.000000)" fill="#FFFFFF">
            <g id="landing">
                <path d="M736.263758,216 L641.425023,216 C641.104224,216 640.844391,216.259833 640.844391,216.580632 L640.844391,256.151013 C640.844391,256.471812 641.104224,256.731645 641.425023,256.731645 L647.131187,256.731645 C647.451986,256.731645 647.711819,256.471812 647.711819,256.151013 L647.711819,223.157744 C647.711819,222.99749 647.841881,222.867428 648.002135,222.867428 L729.686646,222.867428 C729.846901,222.867428 729.976962,222.99749 729.976962,223.157744 L729.976962,304.842256 C729.976962,305.00251 729.846901,305.132572 729.686646,305.132572 L648.002135,305.132572 C647.841881,305.132572 647.711819,305.00251 647.711819,304.842256 L647.711819,279.010215 C647.711819,278.868251 647.894718,278.810478 647.976007,278.926895 L652.234944,285.015115 C652.338007,285.154757 652.539776,285.173627 652.666645,285.055178 L657.237092,280.789853 C657.354379,280.680695 657.360766,280.496924 657.251317,280.379637 L644.702692,266.933064 C644.473052,266.687166 644.083157,266.687166 643.853517,266.933064 L631.305183,280.379637 C631.196024,280.496924 631.202121,280.680695 631.319408,280.789853 L635.889855,285.055178 C636.016723,285.173627 636.218493,285.154757 636.321555,285.015115 L640.580203,278.926895 C640.661782,278.810768 640.844391,278.868251 640.844391,279.010215 L640.844391,311.419368 C640.844391,311.740167 641.104224,312 641.425023,312 L736.263758,312 C736.584558,312 736.844391,311.740167 736.844391,311.419368 L736.844391,216.580632 C736.844391,216.259833 736.584558,216 736.263758,216" id="Fill-1"></path>
            </g>
        </g>
    </g>
</svg>