<svg width="15" height="18" viewBox="0 0 15 18" version="1.1" xmlns="http://www.w3.org/2000/svg" xmlns:xlink="http://www.w3.org/1999/xlink" xmlns:figma="http://www.figma.com/figma/ns">
<g id="Canvas" transform="translate(773 -53)" figma:type="canvas">
<g id="1f3c3" figma:type="frame">
<g id="Vector" figma:type="vector">
<use xlink:href="#path0_fill" transform="translate(-766.492 56.5559)" fill="#FFDD67"/>
</g>
<g id="Vector" figma:type="vector">
<use xlink:href="#path1_fill" transform="translate(-766.919 57.1248)" fill="#EBA352"/>
</g>
<g id="Vector" figma:type="vector">
<use xlink:href="#path2_fill" transform="translate(-769.44 53.4116)" fill="#FFDD67"/>
</g>
<g id="Vector" figma:type="vector">
<use xlink:href="#path3_fill" transform="translate(-769.289 53)" fill="#FFB300"/>
</g>
<g id="Vector" figma:type="vector">
<use xlink:href="#path4_fill" transform="translate(-768.613 56.162)" fill="#937237"/>
</g>
<g id="Vector" figma:type="vector">
<use xlink:href="#path5_fill" transform="translate(-766.043 55.5078)" fill="#EBA352"/>
</g>
<g id="Vector" figma:type="vector">
<use xlink:href="#path6_fill" transform="translate(-768.465 57.7237)" fill="#937237"/>
</g>
<g id="Group" figma:type="frame">
<g id="Vector" figma:type="vector">
<use xlink:href="#path7_fill" transform="translate(-759.436 66.4679)" fill="#D3976E"/>
</g>
<g id="Vector" figma:type="vector">
<use xlink:href="#path8_fill" transform="translate(-771.495 69.6205)" fill="#D3976E"/>
</g>
</g>
<g id="Vector" figma:type="vector">
<use xlink:href="#path9_fill" transform="translate(-764.694 58.6775)" fill="#3B946F"/>
</g>
<g id="Vector" figma:type="vector">
<use xlink:href="#path10_fill" transform="translate(-761.519 60.9952)" fill="#FFDD67"/>
</g>
<g id="Vector" figma:type="vector">
<use xlink:href="#path11_fill" transform="translate(-760.982 61.3145)" fill="#EBA352"/>
</g>
<g id="Vector" figma:type="vector">
<use xlink:href="#path12_fill" transform="translate(-770.183 64.2519)" fill="#3E4347"/>
</g>
<g id="Vector" figma:type="vector">
<use xlink:href="#path13_fill" transform="translate(-771.129 58.7718)" fill="#47B892"/>
</g>
<g id="Vector" figma:type="vector">
<use xlink:href="#path14_fill" transform="translate(-772.667 59.7411)" fill="#FFDD67"/>
</g>
</g>
</g>
<defs>
<path id="path0_fill" d="M 0.579648 0.598915L 1.34234 5.7117e-08L 1.86097 2.8149L 2.32756e-07 3.1443L 0.579648 0.598915Z"/>
<path id="path1_fill" d="M -2.32756e-07 1.55718C 0.610155 1.79674 0.427109 2.57533 0.427109 2.57533C 1.1898 2.4256 1.43386 0.898372 1.28133 -5.7117e-08L -2.32756e-07 1.55718Z"/>
<path id="path2_fill" d="M 3.40626 -1.42792e-08L 0.324974 1.70691C 0.0504038 2.54539 0.416497 2.87479 0.447005 3.20419C 0.477512 3.35392 0.23345 3.65338 0.0809113 3.83305C -0.224166 4.1924 0.416497 4.34213 0.630051 4.25229C 0.843606 4.55175 0.447005 4.82126 1.39275 4.46192C 1.39275 4.46192 0.477512 5.06083 1.2097 5.12072C 1.2097 5.51002 1.27071 6.28861 3.1927 5.15067C 3.77235 4.82126 3.80286 3.71327 3.80286 3.71327L 4.80961 3.35392L 3.40626 -1.42792e-08Z"/>
<path id="path3_fill" d="M 0.875947 0.531347C 2.91997 -0.576645 4.29282 0.321727 4.59789 0.770913C 5.3911 1.96874 5.17754 3.52592 4.38434 4.78364C 4.38434 4.78364 3.86571 4.66386 3.68266 4.09489C 3.68266 4.09489 4.26231 4.24462 4.29282 3.07673C 4.32332 2.08853 3.19454 1.78907 2.91997 3.16657L 2.76743 3.19652C 2.37083 2.5976 2.73692 1.69923 1.91321 1.57945C 1.21153 1.48961 0.113253 2.2682 0.113253 2.2682C -0.161317 1.9388 0.0522375 0.980533 0.875947 0.531347Z"/>
<path id="path4_fill" d="M 0.443051 0.304011C 0.473558 0.513631 0.382035 0.693305 0.260004 0.723251C 0.107465 0.753197 0.0464491 0.603468 0.0159414 0.393848C -0.0145664 0.184228 -0.0145659 0.00455362 0.137973 0.00455362C 0.260004 -0.0253921 0.412543 0.0943908 0.443051 0.304011Z"/>
<path id="path5_fill" d="M 0.00853927 0.868426C -0.0524763 0.479132 0.222093 0.0598915 0.557679 5.7117e-08C 0.557679 5.7117e-08 0.0695543 0.568969 0.344124 1.16788C 0.313616 1.16788 0.039047 1.13794 0.00853927 0.868426Z"/>
<path id="path6_fill" d="M 0.752888 2.28468e-07C 0.752888 2.28468e-07 0.417303 0.359349 0.264764 0.449186C -0.00980594 0.658806 -0.0708216 0.568969 0.0817172 0.41924C 0.203748 0.299457 0.417303 0.149729 0.417303 0.149729L 0.752888 2.28468e-07Z"/>
<path id="path7_fill" d="M 0.0220599 1.97642C -0.0999712 2.57533 0.296629 3.1443 0.906784 3.26409L 1.42542 0.718697C 1.48643 0.41924 1.27288 0.149729 0.9678 0.0898374L 0.418661 4.56936e-07L 0.0220599 1.97642Z"/>
<path id="path8_fill" d="M 1.31183 0.021653C 0.701679 -0.09813 0.122031 0.291165 5.81889e-08 0.89008L 2.62367 1.36921C 2.92875 1.4291 3.23382 1.21948 3.29484 0.94997L 3.41687 0.410947L 1.31183 0.021653Z"/>
<path id="path9_fill" d="M 4.54798 2.37023L 3.54122 0.333925C 3.41919 0.0943595 3.14462 -0.0254236 2.87005 0.00452215L 0.581967 0.0943597C 0.246382 0.0943597 -0.0281887 0.363871 0.00231908 0.693274C 0.00231908 1.02268 0.307397 1.26224 0.642983 1.26224L 2.65649 1.20235L 3.51071 2.90926L 4.54798 2.37023Z"/>
<path id="path10_fill" d="M 0.793817 0.172286L 0.244678 0.381906C 0.0616312 0.441798 -0.0604001 0.651418 0.0311232 0.861038L 0.122647 1.13055C 0.183663 1.28028 0.305694 1.37012 0.458232 1.37012C 0.610771 1.69952 0.915849 2.11876 1.58702 1.87919C 1.70905 1.84925 2.31921 1.63963 2.04464 0.92093C 1.61753 -0.127171 1.61753 -0.127171 0.793817 0.172286Z"/>
<path id="path11_fill" d="M 0.043145 1.02085C 0.500761 0.84118 0.256699 0.362049 0.134668 0.0326457C 0.10416 -0.0272458 0.043145 0.00270009 0.043145 0.0625916C 0.134668 0.332103 0.409237 0.78129 0.0126365 0.960964C -0.0178713 0.960964 0.0126372 1.02085 0.043145 1.02085Z"/>
<path id="path12_fill" d="M 8.2676 1.64702L 7.16932 0L 3.32535 0L 0.732186 1.73685L 1.16378e-07 5.36029L 2.07453 5.77953L 2.65418 2.96463L 5.27784 1.70691L 6.98628 3.4737L 10.7692 4.1924L 11.1658 2.18604L 8.2676 1.64702Z"/>
<path id="path13_fill" d="M 8.11506 5.48007L 6.92526 2.28468e-07L 3.9355 0.539023C 3.81347 0.568969 3.69144 0.628861 3.59992 0.718698L 2.22707 2.12615L 0.396601 1.49729L 0 2.60528L 2.22707 3.35392C 2.50164 3.44376 2.77621 3.35392 2.92875 3.11436L 4.02703 1.97642L 4.27109 5.48007L 8.11506 5.48007Z"/>
<path id="path14_fill" d="M 1.87348 1.15689L 2.11754 0.647816C 2.20906 0.468142 2.11754 0.228576 1.93449 0.168684L 1.65992 0.0489016C 1.50739 -0.0109899 1.35485 0.0189555 1.26332 0.108793C 0.927738 -0.0409359 0.409106 -0.130773 0.104028 0.498088C 0.0430125 0.587925 -0.231557 1.15689 0.470121 1.4863C 1.50739 1.93548 1.50739 1.93548 1.87348 1.15689Z"/>
</defs>
</svg>
