<?xml version="1.0" encoding="UTF-8"?>
<svg width="426px" height="106px" viewBox="0 0 426 106" version="1.1" xmlns="http://www.w3.org/2000/svg" xmlns:xlink="http://www.w3.org/1999/xlink">
    <!-- Generator: Sketch 48.2 (47327) - http://www.bohemiancoding.com/sketch -->
    <title>Logotype</title>
    <desc>Created with Sketch.</desc>
    <defs></defs>
    <g id="Page-1" stroke="none" stroke-width="1" fill="none" fill-rule="evenodd">
        <g id="Logotype" fill="#FFFFFF">
            <path d="M24.4877867,82.2842809 C19.7826128,82.2842809 16.025065,80.9271782 13.2150306,78.212932 C10.4049961,75.4986858 9,71.7543903 9,66.9799331 C9,65.4756521 9.17970881,63.8569392 9.53913182,62.1237458 C9.89855483,60.3905525 10.3069839,58.6737357 10.7644314,56.9732441 L18.3122768,28.7190635 L33.2119198,28.7190635 L25.4680264,57.5618729 C25.2719775,58.2813117 25.1086059,59.0824928 24.9779066,59.9654404 C24.8472073,60.8483879 24.7818586,61.6168678 24.7818586,62.270903 C24.7818586,64.3638157 25.4190081,65.966178 26.693326,67.0780379 C27.9676439,68.1898978 29.7483949,68.7458194 32.0356322,68.7458194 C34.9763659,68.7458194 37.3942662,67.7811319 39.2894057,65.851728 C41.1845452,63.9223241 42.556867,61.3879756 43.4064123,58.2486065 L51.3463536,28.7190635 L66.2459966,28.7190635 L52.2285693,81.303233 L37.3289264,81.303233 L38.7992859,75.8093645 C36.9041464,77.5098561 34.780315,79.0141146 32.427728,80.3221851 C30.0751411,81.6302555 27.4285204,82.2842809 24.4877867,82.2842809 Z M60.9927122,97 L79.22517,28.7190635 L94.1248129,28.7190635 L92.5564294,34.4091416 C94.8436668,32.3162289 97.147207,30.6811653 99.4671191,29.5039019 C101.787031,28.3266385 104.417315,27.7380156 107.358048,27.7380156 C110.233432,27.7380156 112.89639,28.2448853 115.347002,29.2586399 C117.797613,30.2723945 119.937782,31.7439517 121.767572,33.6733556 C123.597361,35.6027596 125.018695,37.9736017 126.031614,40.7859532 C127.044533,43.5983047 127.550986,46.7703279 127.550986,50.3021182 C127.550986,54.9457683 126.734127,59.2296348 125.100386,63.1538462 C123.466645,67.0780575 121.293803,70.4626391 118.581793,73.3076923 C115.869783,76.1527456 112.782059,78.3600813 109.318528,79.9297659 C105.854997,81.4994504 102.260821,82.2842809 98.5358914,82.2842809 C94.4188642,82.2842809 91.0697455,81.4994504 88.4884348,79.9297659 C85.9071241,78.3600813 83.7669556,76.2672 82.067865,73.6510591 L75.8923551,97 L60.9927122,97 Z M96.5754121,69.7268673 C98.6012509,69.7268673 100.545373,69.2690495 102.407838,68.3534002 C104.270303,67.4377509 105.920356,66.1460507 107.358048,64.4782609 C108.79574,62.810471 109.955679,60.8647454 110.837899,58.6410256 C111.720119,56.4173059 112.161223,53.9647105 112.161223,51.2831661 C112.161223,47.8167794 111.164656,45.1189245 109.171492,43.1895206 C107.178328,41.2601167 104.51537,40.2954292 101.182539,40.2954292 C99.0913501,40.2954292 97.098216,40.7695976 95.2030765,41.7179487 C93.307937,42.6662998 91.6252091,43.9743506 90.1548423,45.6421405 C88.6844754,47.3099303 87.5081996,49.2556559 86.6259795,51.4793757 C85.7437593,53.7030955 85.3026559,56.057587 85.3026559,58.5429208 C85.3026559,61.8785005 86.3482344,64.5763554 88.4394228,66.6365663 C90.5306113,68.6967773 93.2425805,69.7268673 96.5754121,69.7268673 Z M133.374409,81.303233 L144.157046,41.4726867 L137.883512,41.4726867 L141.314351,28.7190635 L147.489861,28.7190635 L148.176028,25.8740245 C149.61372,19.9223039 152.129644,15.6220868 155.723874,12.9732441 C159.318104,10.3244015 163.89251,9 169.447229,9 C171.538418,9 173.449866,9.13080508 175.181631,9.39241918 C176.913397,9.65403327 178.400079,10.0137472 179.641722,10.4715719 L176.406931,22.8327759 C175.426686,22.4403548 174.364771,22.1296927 173.221152,21.9007804 C172.077533,21.671868 170.982943,21.5574136 169.937349,21.5574136 C166.016371,21.5574136 163.565796,23.4540873 162.585551,27.2474916 L162.193456,28.7190635 L174.838547,28.7190635 L171.407708,41.4726867 L159.056689,41.4726867 L148.274052,81.303233 L133.374409,81.303233 Z M170.663527,81.303233 L184.680954,28.7190635 L199.580597,28.7190635 L196.737902,39.3143813 C199.417237,35.3901699 202.341589,32.3980036 205.511047,30.3377926 C208.680504,28.2775817 212.421715,27.410998 216.734791,27.7380156 L212.51976,43.3366778 L211.735569,43.3366778 C206.768996,43.3366778 202.455985,44.8409363 198.796405,47.8494983 C195.136825,50.8580604 192.392182,55.7959523 190.562392,62.6633222 L185.563169,81.303233 L170.663527,81.303233 Z M227.557437,82.2842809 C225.2702,82.2842809 223.19538,81.9409176 221.332915,81.2541806 C219.47045,80.5674436 217.869408,79.5864055 216.529741,78.3110368 C215.190073,77.0356681 214.144495,75.5477603 213.392974,73.8472687 C212.641453,72.1467771 212.265698,70.2501034 212.265698,68.1571906 C212.265698,65.1486286 212.853836,62.4671244 214.03013,60.1125975 C215.206423,57.7580707 216.807465,55.7632932 218.833304,54.1282051 C220.859143,52.4931171 223.244369,51.2668194 225.989054,50.4492754 C228.733738,49.6317313 231.707102,49.2229654 234.909235,49.2229654 C237.784619,49.2229654 240.414902,49.4355237 242.800164,49.8606466 C245.185426,50.2857695 247.488966,50.8580417 249.710854,51.5774805 L249.906901,50.8907469 C250.037601,50.3021152 250.168298,49.6971417 250.298997,49.0758082 C250.429697,48.4544748 250.495045,47.7513975 250.495045,46.9665552 C250.495045,45.1352565 249.77621,43.6473487 248.338518,42.5027871 C246.900826,41.3582254 244.319554,40.7859532 240.594625,40.7859532 C238.045989,40.7859532 235.546403,41.063914 233.095791,41.6198439 C230.64518,42.1757739 228.472337,42.8461499 226.577197,43.6309922 L224.224622,31.8584169 C226.969307,30.7465571 229.975345,29.8472721 233.242827,29.1605351 C236.510309,28.4737981 240.006462,28.1304348 243.731392,28.1304348 C250.854502,28.1304348 256.180418,29.5365894 259.709298,32.3489409 C263.238179,35.1612924 265.002592,39.1508474 265.002592,44.3177258 C265.002592,45.6911997 264.888232,47.0319518 264.659508,48.3400223 C264.430785,49.6480928 264.153053,50.9561436 263.826305,52.264214 L256.082411,81.303233 L241.672888,81.303233 L243.241272,75.2207358 C241.150083,77.5098591 238.797532,79.2593771 236.183546,80.4693423 C233.569561,81.6793074 230.69422,82.2842809 227.557437,82.2842809 Z M233.928995,72.0813824 C235.497386,72.0813824 236.984068,71.8034216 238.389085,71.2474916 C239.794103,70.6915617 241.084739,69.9230818 242.261032,68.942029 C243.437326,67.9609761 244.45023,66.8327823 245.299775,65.5574136 C246.14932,64.2820449 246.770133,62.9249422 247.16223,61.4860647 L247.554326,60.1125975 C246.247333,59.5893694 244.744314,59.1479022 243.045224,58.7881828 C241.346133,58.4284635 239.581719,58.2486065 237.75193,58.2486065 C234.615147,58.2486065 232.050212,58.9843851 230.057048,60.4559643 C228.063884,61.9275436 227.067317,63.9386718 227.067317,66.4894091 C227.067317,68.1244972 227.688129,69.4652493 228.929773,70.5117057 C230.171416,71.5581621 231.837806,72.0813824 233.928995,72.0813824 Z M268.473441,81.303233 L282.490868,28.7190635 L297.390511,28.7190635 L295.920152,34.212932 C297.815291,32.5124404 299.873774,31.0081819 302.095662,29.7001115 C304.317549,28.392041 306.898821,27.7380156 309.839555,27.7380156 C313.433785,27.7380156 316.390812,28.5882487 318.710724,30.2887402 C321.030636,31.9892318 322.713364,34.3110221 323.758958,37.2541806 C326.046196,34.4418291 328.758165,32.1527402 331.894947,30.386845 C335.03173,28.6209499 338.593232,27.7380156 342.57956,27.7380156 C347.284734,27.7380156 350.99327,29.0951184 353.70528,31.8093645 C356.41729,34.5236107 357.773275,38.2679063 357.773275,43.0423634 C357.773275,44.5466445 357.593566,46.1653574 357.234143,47.8985507 C356.87472,49.6317441 356.466291,51.3485608 356.008843,53.0490524 L348.460998,81.303233 L333.561355,81.303233 L341.305248,52.4604236 C341.501297,51.7409849 341.664669,50.9398037 341.795368,50.0568562 C341.926067,49.1739086 341.991416,48.4054288 341.991416,47.7513935 C341.991416,43.434761 339.671539,41.2764771 335.031714,41.2764771 C332.090981,41.2764771 329.705755,42.2411646 327.875965,44.1705686 C326.046175,46.0999725 324.706527,48.634321 323.856982,51.7736901 L315.917041,81.303233 L301.017398,81.303233 L308.761291,52.4604236 C308.95734,51.7409849 309.120712,50.9398037 309.251411,50.0568562 C309.38211,49.1739086 309.447459,48.4054288 309.447459,47.7513935 C309.447459,43.434761 307.127582,41.2764771 302.487757,41.2764771 C299.547024,41.2764771 297.161798,42.2411646 295.332008,44.1705686 C293.502218,46.0999725 292.16257,48.634321 291.313025,51.7736901 L283.373084,81.303233 L268.473441,81.303233 Z M379.378557,60.2107023 C379.639956,63.3500714 380.718209,65.8517187 382.613348,67.7157191 C384.508488,69.5797195 387.416503,70.5117057 391.337481,70.5117057 C393.29797,70.5117057 395.193081,70.184693 397.022871,69.5306577 C398.852661,68.8766225 400.845795,67.7974806 403.002333,66.2931996 L409.864011,75.5150502 C407.511424,77.4771559 404.685094,79.12857 401.384938,80.4693423 C398.084781,81.8101145 394.180199,82.4804905 389.671074,82.4804905 C385.880795,82.4804905 382.482664,81.9409196 379.476581,80.8617614 C376.470498,79.7826033 373.9219,78.2456436 371.830712,76.2508361 C369.739523,74.2560287 368.138481,71.819784 367.027537,68.942029 C365.916593,66.064274 365.36113,62.7941469 365.36113,59.1315496 C365.36113,55.3381453 366.096302,51.5611485 367.566669,47.8004459 C369.037036,44.0397434 371.14453,40.6715125 373.889215,37.6956522 C376.6339,34.7197919 379.91767,32.3162485 383.740624,30.4849498 C387.563577,28.6536512 391.827577,27.7380156 396.532751,27.7380156 C399.930932,27.7380156 402.969645,28.2612359 405.64898,29.3076923 C408.328315,30.3541487 410.582844,31.7930046 412.412634,33.6243032 C414.242424,35.4556019 415.631083,37.6138858 416.578652,40.0992196 C417.526222,42.5845535 418,45.298759 418,48.2419175 C418,50.1386197 417.77128,52.1006959 417.313832,54.1282051 C416.856385,56.1557143 416.202898,58.1831931 415.353353,60.2107023 L379.378557,60.2107023 Z M380.652869,50.8907469 L403.492453,50.8907469 C403.819201,49.778887 403.982573,48.6343426 403.982573,47.4570792 C403.982573,45.2987629 403.312749,43.4674917 401.973081,41.9632107 C400.633414,40.4589297 398.427897,39.7068004 395.356464,39.7068004 C391.958283,39.7068004 388.968581,40.7368905 386.387271,42.7971014 C383.80596,44.8573124 381.894512,47.5551673 380.652869,50.8907469 Z" id="upframe"></path>
        </g>
    </g>
</svg>