<?xml version="1.0" encoding="utf-8"?>
<!-- Generator: Adobe Illustrator 16.0.0, SVG Export Plug-In . SVG Version: 6.00 Build 0)  -->
<!DOCTYPE svg PUBLIC "-//W3C//DTD SVG 1.1//EN" "http://www.w3.org/Graphics/SVG/1.1/DTD/svg11.dtd">
<svg version="1.1" id="Layer_2" xmlns="http://www.w3.org/2000/svg" xmlns:xlink="http://www.w3.org/1999/xlink" x="0px" y="0px"
	 width="1157px" height="415px" viewBox="0 0 1157 415" enable-background="new 0 0 1157 415" xml:space="preserve">
<path fill="#FFFFFF" d="M164.572,92.823l12.605,45.75l-45.75,12.605l-12.605-45.75L164.572,92.823 M175.619,73.371L99.371,94.381
	l21.011,76.249l76.249-21.011L175.619,73.371L175.619,73.371z"/>
<path fill="#FFFFFF" d="M1038.164,221.445l33.392,33.719l-33.72,33.392l-33.391-33.72L1038.164,221.445 M1038.272,199.076
	l-56.197,55.652l55.653,56.197l56.196-55.652L1038.272,199.076L1038.272,199.076z"/>
<path fill="#FFFFFF" d="M250.572,329.822l12.605,45.75l-45.75,12.605l-12.605-45.75L250.572,329.822 M261.619,310.371l-76.249,21.01
	l21.011,76.249l76.249-21.011L261.619,310.371L261.619,310.371z"/>
<polygon fill="#FFFFFF" points="376,6.397 370.603,1 364.125,7.478 357.647,1 352.25,6.397 358.728,12.875 352.25,19.353 
	357.647,24.75 364.125,18.272 370.603,24.75 376,19.353 369.522,12.875 "/>
<polygon fill="#FFFFFF" points="25,216.397 19.603,211 13.125,217.478 6.647,211 1.25,216.397 7.728,222.875 1.25,229.353 
	6.647,234.75 13.125,228.272 19.603,234.75 25,229.353 18.522,222.875 "/>
<polygon fill="#FFFFFF" points="363,393.397 357.603,388 351.125,394.478 344.647,388 339.25,393.397 345.728,399.875 
	339.25,406.353 344.647,411.75 351.125,405.272 357.603,411.75 363,406.353 356.522,399.875 "/>
<polygon fill="#FFFFFF" points="808,41.397 802.603,36 796.125,42.478 789.647,36 784.25,41.397 790.728,47.875 784.25,54.353 
	789.647,59.75 796.125,53.272 802.603,59.75 808,54.353 801.522,47.875 "/>
<polygon fill="#FFFFFF" points="716.25,326.806 701.194,311.75 683.125,329.819 665.056,311.75 650,326.806 668.069,344.875 
	650,362.944 665.056,378 683.125,359.931 701.194,378 716.25,362.944 698.181,344.875 "/>
<polygon fill="#FFFFFF" points="1154,57.397 1148.603,52 1142.125,58.478 1135.647,52 1130.25,57.397 1136.728,63.875 
	1130.25,70.353 1135.647,75.75 1142.125,69.272 1148.603,75.75 1154,70.353 1147.522,63.875 "/>
<polygon fill="#FFFFFF" points="1101,381.397 1095.603,376 1089.125,382.478 1082.647,376 1077.25,381.397 1083.728,387.875 
	1077.25,394.353 1082.647,399.75 1089.125,393.272 1095.603,399.75 1101,394.353 1094.522,387.875 "/>
<rect x="582" y="301.985" transform="matrix(0.1657 0.9862 -0.9862 0.1657 825.5652 -291.4008)" fill="#FFFFFF" width="6.001" height="80.446"/>
<g>
	<line fill="#FFFFFF" x1="574.667" y1="359.004" x2="626.167" y2="349.67"/>
	
		<rect x="598.917" y="328.167" transform="matrix(0.1784 0.984 -0.984 0.1784 841.9371 -299.6683)" fill="#FFFFFF" width="2.999" height="52.34"/>
</g>
<g>
	<line fill="#FFFFFF" x1="569.729" y1="374.848" x2="626.438" y2="364.467"/>
	
		<rect x="596.083" y="340.831" transform="matrix(0.1801 0.9836 -0.9836 0.1801 853.9606 -285.23)" fill="#FFFFFF" width="4.001" height="57.652"/>
</g>
</svg>
