<?xml version="1.0" encoding="utf-8"?>
<!-- Generator: Adobe Illustrator 16.0.0, SVG Export Plug-In . SVG Version: 6.00 Build 0)  -->
<!DOCTYPE svg PUBLIC "-//W3C//DTD SVG 1.1//EN" "http://www.w3.org/Graphics/SVG/1.1/DTD/svg11.dtd">
<svg version="1.1" id="Vector_Smart_Object_xA0_Image_3_"
	 xmlns="http://www.w3.org/2000/svg" xmlns:xlink="http://www.w3.org/1999/xlink" x="0px" y="0px" width="1286px" height="221px"
	 viewBox="0 0 1286 221" enable-background="new 0 0 1286 221" xml:space="preserve">
<g>
	<path fill="#00E5D4" d="M313.056,72.934l-22.062-6.466l6.462-22.059l22.058,6.459L313.056,72.934 M318.259,82.443l10.767-36.774
		l-36.768-10.767l-10.77,36.77L318.259,82.443L318.259,82.443z"/>
	<path fill="#00E5D4" d="M271.196,28.191l-13.154,4.067l-4.065-13.154l13.148-4.068L271.196,28.191 M276.939,31.22l-6.782-21.925
		l-21.922,6.781L255.015,38L276.939,31.22L276.939,31.22z"/>
	<path fill="#00E5D4" d="M246.816,85.051l-27.045-7.922l7.921-27.046l27.043,7.919L246.816,85.051 M253.196,96.711l13.198-45.084
		l-45.075-13.199l-13.205,45.077L253.196,96.711L253.196,96.711z"/>
	<path fill="#00E5D4" d="M129.706,114.926l-11.369-3.33l3.331-11.367l11.368,3.328L129.706,114.926 M132.388,119.827l5.546-18.951
		l-18.946-5.548l-5.552,18.949L132.388,119.827L132.388,119.827z"/>
	<path fill="#00E5D4" d="M59.939,115.749l-6.331-10.015l10.013-6.328l6.331,10.01L59.939,115.749 M58.711,121.2L75.4,110.644
		L64.851,93.957l-16.69,10.552L58.711,121.2L58.711,121.2z"/>
	<path fill="#00E5D4" d="M39.001,151.814l-3.983-6.298l6.296-3.979l3.982,6.295L39.001,151.814 M38.228,155.243l10.495-6.637
		l-6.635-10.496l-10.494,6.636L38.228,155.243L38.228,155.243z"/>
	<path fill="#00E5D4" d="M12.59,153.228l-7.386-0.983l0.984-7.385l7.383,0.983L12.59,153.228 M14.724,156.017l1.639-12.31
		l-12.307-1.639l-1.642,12.307L14.724,156.017L14.724,156.017z"/>
	<path fill="#00E5D4" d="M177.924,118.123l-14.288,13.083l-13.084-14.289l14.285-13.083L177.924,118.123 M187.053,118.521
		l-21.813-23.813l-23.81,21.806l21.806,23.814L187.053,118.521L187.053,118.521z"/>
	<polygon fill="#00E5D4" points="352.351,134.87 331.862,104.14 362.594,83.651 354.058,70.851 310.522,99.873 339.538,143.409 	"/>
	<polygon fill="#00E5D4" points="246.688,136.227 213.727,137.586 212.372,104.616 198.642,105.185 200.561,151.881 
		247.255,149.969 	"/>
	<polygon fill="#00E5D4" points="150.381,83.771 133.874,78.529 139.123,62.017 132.247,59.834 124.814,83.219 148.194,90.655 	"/>
	<polygon fill="#00E5D4" points="106.447,119.235 96.17,125.085 90.32,114.804 86.04,117.243 94.323,131.803 108.885,123.519 	"/>
	<polygon fill="#00E5D4" points="40.731,125.689 31.109,118.817 37.985,109.192 33.975,106.331 24.236,119.961 37.868,129.702 	"/>
	<polygon fill="#00E5D4" points="25.152,129.324 20.965,136.041 14.246,131.85 12.5,134.65 22.014,140.589 27.954,131.072 	"/>
	<polygon fill="#00E5D4" points="305.417,149.392 313.465,135.462 296.753,125.805 306.416,109.09 292.485,101.038 282.823,117.753 
		266.109,108.092 258.062,122.022 274.774,131.682 265.111,148.396 279.042,156.445 288.706,139.734 	"/>
	<polygon fill="#00E5D4" points="193.334,75.777 199.675,64.809 186.514,57.199 194.123,44.038 183.15,37.695 175.541,50.857 
		162.378,43.25 156.041,54.221 169.204,61.827 161.592,74.99 172.564,81.33 180.173,68.169 	"/>
	<polygon fill="#00E5D4" points="105.43,98.597 108.641,93.044 101.979,89.194 105.83,82.529 100.275,79.32 96.422,85.981 
		89.759,82.13 86.551,87.687 93.214,91.537 89.362,98.199 94.915,101.408 98.768,94.745 	"/>
	<polygon fill="#00E5D4" points="81.761,148.302 84.972,142.749 78.31,138.896 82.161,132.235 76.606,129.024 72.754,135.685 
		66.09,131.834 62.882,137.393 69.545,141.242 65.692,147.903 71.246,151.112 75.099,144.449 	"/>
	<polygon fill="#00E5D4" points="23.686,170.696 27.487,169.682 26.268,165.119 30.827,163.9 29.812,160.099 25.25,161.317 
		24.03,156.756 20.229,157.772 21.449,162.336 16.888,163.555 17.906,167.354 22.467,166.136 	"/>
</g>
<g>
	<g>
		<path fill="#00E5D4" d="M1058.834,122.72l-12.53-46.843l48.503-34.91l87.771-26.657l98.014,22.212L1227.9,93.297l-69.332,27.488
			L1058.834,122.72z M1056.063,79.359l9.282,34.705l91.514-1.773l66.105-26.209l41.312-44.513l-81.381-18.443l-84.256,25.589
			L1056.063,79.359z"/>
		<path fill="#00E5D4" d="M1041.394,129.508l-11.925-54.467l24.919-1.95l12.868,48.119L1041.394,129.508z M1039.892,82.779
			l7.827,35.747l9.202-2.952l-8.938-33.428L1039.892,82.779z"/>
		<path fill="#00E5D4" d="M1049.544,84.053L1029.59,42.48L961.262,2.991l89.323,3.238l53.428,38.62L1049.544,84.053z
			 M995.199,12.754l40.939,23.661l16.686,34.769l36.611-26.35l-41.749-30.177L995.199,12.754z"/>
		<path fill="#00E5D4" d="M1022.807,218.486l44.51-68.443l-10.956-35.805l68.519-1.327l-8.457,48.611L1022.807,218.486z
			 M1067.818,122.546l8.818,28.811l-26.254,40.368l58.302-35.476l6.022-34.612L1067.818,122.546z"/>
		<path fill="#00E5D4" d="M1168.789,90.946l-36.674-0.475l3.631-35.691l40.709-10.887L1168.789,90.946z M1141.541,82.065
			l20.013,0.259l4.364-26.786l-22.283,5.958L1141.541,82.065z"/>
		<path fill="#00E5D4" d="M1244.401,75.519l-16.106-50.847l52.297,11.85L1244.401,75.519z M1240.916,36.275l7.194,22.712
			l16.166-17.418L1240.916,36.275z"/>
	</g>
	<path fill="#00E5D4" d="M979.734,102.993l-7.495-7.278l7.278-7.493l7.495,7.274L979.734,102.993 M979.807,107.917l12.131-12.492
		l-12.49-12.127l-12.129,12.489L979.807,107.917L979.807,107.917z"/>
	<polygon fill="#00E5D4" points="1015.648,139.364 1004.314,135.161 1008.52,123.825 1003.798,122.076 997.841,138.13 
		1013.896,144.089 	"/>
	<polygon fill="#00E5D4" points="959.813,123.357 952.758,112.775 963.342,105.721 960.4,101.313 945.409,111.307 955.4,126.3 	"/>
	<polygon fill="#00E5D4" points="1028.933,133.63 1026.128,126.381 1033.376,123.574 1032.208,120.554 1021.939,124.529 
		1025.909,134.798 	"/>
	<polygon fill="#00E5D4" points="985.555,135.779 988.846,130.084 982.013,126.136 985.964,119.303 980.267,116.01 976.316,122.843 
		969.483,118.893 966.19,124.589 973.025,128.539 969.074,135.372 974.771,138.666 978.722,131.83 	"/>
	<polygon fill="#00E5D4" points="1021.826,90.772 1023.471,87.926 1020.056,85.95 1022.028,82.532 1019.183,80.888 1017.208,84.305 
		1013.791,82.329 1012.144,85.177 1015.561,87.152 1013.587,90.569 1016.435,92.215 1018.408,88.797 	"/>
	<path fill="#00E5D4" d="M1027.474,106.918l-2.9,5.01l-5.01-2.895l2.895-5.013L1027.474,106.918 M1030.108,106.214l-8.354-4.83
		l-4.829,8.354l8.353,4.825L1030.108,106.214L1030.108,106.214z"/>
	<path fill="#00E5D4" d="M1006.892,106.334l-5.449,1.951l-1.954-5.449l5.45-1.95L1006.892,106.334 M1009.357,107.5l-3.252-9.084
		l-9.086,3.255l3.257,9.081L1009.357,107.5L1009.357,107.5z"/>
	<path fill="#00E5D4" d="M983.929,148.765l-3.116,4.876l-4.878-3.114l3.116-4.88L983.929,148.765 M986.596,148.176l-8.131-5.197
		l-5.192,8.135l8.127,5.19L986.596,148.176L986.596,148.176z"/>
</g>
</svg>
