<svg xmlns="http://www.w3.org/2000/svg" viewBox="0 0 335.18 215.49"><defs><style>.cls-1{fill:#00e5d4;}</style></defs><title>Asset 2</title><g id="Layer_2" data-name="Layer 2"><g id="Vector_Smart_Object_Image" data-name="Vector Smart Object Image"><path class="cls-1" d="M113.42,119.73,100.89,72.89,149.4,38l87.77-26.66,98,22.21L282.49,90.31l-69.33,27.49Zm-2.77-43.36,9.28,34.71,91.51-1.77,66.1-26.21,41.31-44.51L237.49,20.13,153.23,45.72Z"/><path class="cls-1" d="M96,126.52,84.06,72.05,109,70.1l12.87,48.12Zm-1.5-46.73,7.83,35.75,9.2-3-8.94-33.43Z"/><path class="cls-1" d="M104.13,81.06l-20-41.57L15.85,0l89.32,3.24L158.6,41.86ZM49.79,9.76,90.73,33.42l16.69,34.77L144,41.84,102.28,11.67Z"/><path class="cls-1" d="M77.4,215.49l44.51-68.44-11-35.81,68.52-1.33L171,158.53Zm45-95.94,8.82,28.81L105,188.73l58.3-35.48,6-34.61Z"/><path class="cls-1" d="M223.38,88l-36.67-.47,3.63-35.69L231,40.9Zm-27.25-8.88,20,.26,4.36-26.79-22.28,6Z"/><path class="cls-1" d="M299,72.53,282.89,21.68l52.3,11.85Zm-3.48-39.24L302.7,56l16.17-17.42Z"/><path class="cls-1" d="M34.33,100l-7.49-7.28,7.28-7.49,7.49,7.27L34.33,100m.07,4.92L46.53,92.43,34,80.31,21.91,92.8,34.4,104.93Z"/><polygon class="cls-1" points="70.24 136.37 58.91 132.17 63.11 120.83 58.39 119.08 52.43 135.14 68.49 141.1 70.24 136.37"/><polygon class="cls-1" points="14.4 120.37 7.35 109.78 17.93 102.73 14.99 98.32 0 108.32 9.99 123.31 14.4 120.37"/><polygon class="cls-1" points="83.52 130.64 80.72 123.39 87.97 120.58 86.8 117.56 76.53 121.54 80.5 131.81 83.52 130.64"/><polygon class="cls-1" points="40.15 132.79 43.44 127.09 36.6 123.14 40.55 116.31 34.86 113.02 30.91 119.85 24.07 115.9 20.78 121.6 27.62 125.55 23.66 132.38 29.36 135.68 33.31 128.84 40.15 132.79"/><polygon class="cls-1" points="76.42 87.78 78.06 84.94 74.65 82.96 76.62 79.54 73.77 77.9 71.8 81.31 68.38 79.34 66.73 82.19 70.15 84.16 68.18 87.58 71.03 89.22 73 85.81 76.42 87.78"/><path class="cls-1" d="M82.07,103.93l-2.9,5-5-2.89,2.9-5,5,2.9m2.63-.7-8.35-4.83-4.83,8.35,8.35,4.82,4.83-8.35Z"/><path class="cls-1" d="M61.48,103.34l-5.45,2-2-5.45,5.45-1.95,2,5.45m2.46,1.17L60.7,95.43l-9.09,3.25,3.26,9.08,9.08-3.25Z"/><path class="cls-1" d="M38.52,145.77l-3.12,4.88-4.88-3.11,3.12-4.88,4.88,3.12m2.67-.59L33.06,140l-5.19,8.13L36,153.31l5.2-8.13Z"/></g></g></svg>