<svg xmlns="http://www.w3.org/2000/svg" viewBox="0 0 360.18 161.4"><defs><style>.cls-1{fill:#00e5d4;}</style></defs><title>Asset 1</title><g id="Layer_2" data-name="Layer 2"><g id="Vector_Smart_Object_Image" data-name="Vector Smart Object Image"><path class="cls-1" d="M310.64,63.64l-22.06-6.47L295,35.11l22.06,6.46-6.46,22.07m5.2,9.51,10.77-36.77L289.84,25.61,279.07,62.38l36.77,10.77Z"/><path class="cls-1" d="M268.78,18.9,255.63,23,251.56,9.81l13.15-4.07,4.07,13.15m5.74,3L267.74,0,245.82,6.78,252.6,28.7l21.92-6.78Z"/><path class="cls-1" d="M244.4,75.76l-27-7.92,7.92-27,27,7.92-7.92,27m6.38,11.66L264,42.33l-45.07-13.2L205.7,74.21l45.08,13.21Z"/><path class="cls-1" d="M127.29,105.63l-11.37-3.33,3.33-11.37,11.37,3.33-3.33,11.37m2.68,4.9,5.55-19L116.57,86,111,105l19,5.55Z"/><path class="cls-1" d="M57.52,106.45l-6.33-10,10-6.33,6.33,10-10,6.33M56.3,111.9,73,101.35,62.44,84.66,45.75,95.21,56.3,111.9Z"/><path class="cls-1" d="M36.59,142.52l-4-6.3,6.3-4,4,6.29-6.29,4m-.77,3.43,10.49-6.64-6.64-10.5-10.49,6.64,6.63,10.5Z"/><path class="cls-1" d="M10.18,143.93l-7.39-1,1-7.38,7.38,1-1,7.38m2.13,2.79,1.64-12.31L1.64,132.77,0,145.08l12.31,1.64Z"/><path class="cls-1" d="M175.51,108.83l-14.29,13.08-13.08-14.29,14.29-13.08,13.09,14.29m9.13.4L162.83,85.41,139,107.22,160.82,131l23.82-21.81Z"/><polygon class="cls-1" points="349.94 125.58 329.45 94.84 360.18 74.36 351.64 61.56 308.11 90.58 337.12 134.11 349.94 125.58"/><polygon class="cls-1" points="244.27 126.93 211.31 128.29 209.96 95.32 196.23 95.89 198.15 142.59 244.84 140.67 244.27 126.93"/><polygon class="cls-1" points="147.97 74.48 131.46 69.23 136.71 52.72 129.83 50.54 122.4 73.92 145.78 81.36 147.97 74.48"/><polygon class="cls-1" points="104.03 109.94 93.76 115.79 87.91 105.51 83.63 107.95 91.91 122.51 106.47 114.22 104.03 109.94"/><polygon class="cls-1" points="38.32 116.39 28.7 109.52 35.57 99.9 31.56 97.04 21.82 110.67 35.45 120.41 38.32 116.39"/><polygon class="cls-1" points="22.74 120.03 18.55 126.75 11.83 122.56 10.09 125.36 19.6 131.29 25.54 121.78 22.74 120.03"/><polygon class="cls-1" points="303 140.1 311.05 126.17 294.34 116.51 304 99.8 290.07 91.74 280.41 108.46 263.69 98.8 255.65 112.73 272.36 122.39 262.7 139.1 276.63 147.15 286.29 130.44 303 140.1"/><polygon class="cls-1" points="190.92 66.48 197.26 55.51 184.1 47.9 191.71 34.74 180.74 28.4 173.13 41.56 159.96 33.95 153.63 44.93 166.79 52.53 159.18 65.69 170.15 72.03 177.76 58.87 190.92 66.48"/><polygon class="cls-1" points="103.02 89.3 106.23 83.75 99.56 79.9 103.42 73.23 97.86 70.03 94.01 76.69 87.34 72.83 84.14 78.39 90.8 82.24 86.95 88.9 92.5 92.11 96.35 85.45 103.02 89.3"/><polygon class="cls-1" points="79.35 139.01 82.56 133.45 75.9 129.6 79.75 122.94 74.19 119.73 70.34 126.39 63.68 122.54 60.47 128.1 67.13 131.95 63.28 138.61 68.83 141.82 72.69 135.15 79.35 139.01"/><polygon class="cls-1" points="21.27 161.4 25.07 160.39 23.85 155.82 28.41 154.6 27.4 150.8 22.84 152.02 21.62 147.46 17.82 148.48 19.04 153.04 14.47 154.26 15.49 158.06 20.05 156.84 21.27 161.4"/></g></g></svg>