<?xml version="1.0" encoding="utf-8"?>
<!-- Generator: Adobe Illustrator 16.0.0, SVG Export Plug-In . SVG Version: 6.00 Build 0)  -->
<!DOCTYPE svg PUBLIC "-//W3C//DTD SVG 1.1//EN" "http://www.w3.org/Graphics/SVG/1.1/DTD/svg11.dtd">
<svg version="1.1" id="Layer_1" xmlns="http://www.w3.org/2000/svg" xmlns:xlink="http://www.w3.org/1999/xlink" x="0px" y="0px"
	 width="218px" height="155px" viewBox="0 0 218 155" enable-background="new 0 0 218 155" xml:space="preserve">
<g>
	<polygon fill="#EDEDED" points="178.404,59.371 176.402,25.491 210.283,23.491 209.45,9.374 161.453,12.208 164.286,60.205 	"/>
	<polygon fill="#EDEDED" points="69.833,121 59.833,111.001 47.833,123.001 35.833,111.001 25.833,121 37.833,133 25.833,145 
		35.833,155 47.833,143 59.833,155 69.833,145 57.833,133 	"/>
	<path fill="#FF3855" d="M113,53v27H87V53H113 M122,44H78v44h44V44L122,44z"/>
	<path fill="#EDEDED" d="M48.556,24.863L36.534,48.366L13.031,36.344l12.022-23.503L48.556,24.863 M60.398,21.035L21.226,1
		L1.189,40.171l39.172,20.037L60.398,21.035L60.398,21.035z"/>
	<path fill="#EDEDED" d="M196.423,87.244l9.804,24.512l-24.512,9.803l-9.804-24.511L196.423,87.244 M201.325,75.806l-40.853,16.339
		l16.339,40.854l40.853-16.339L201.325,75.806L201.325,75.806z"/>
	<path fill="#FF3855" d="M129,69v27h-26V69H129 M138,60H94v44h44V60L138,60z"/>
</g>
</svg>
