<?xml version="1.0" encoding="utf-8"?>
<!-- Generator: Adobe Illustrator 16.0.0, SVG Export Plug-In . SVG Version: 6.00 Build 0)  -->
<!DOCTYPE svg PUBLIC "-//W3C//DTD SVG 1.1//EN" "http://www.w3.org/Graphics/SVG/1.1/DTD/svg11.dtd">
<svg version="1.1" id="Layer_6" xmlns="http://www.w3.org/2000/svg" xmlns:xlink="http://www.w3.org/1999/xlink" x="0px" y="0px"
	 width="125px" height="251px" viewBox="0 0 125 251" enable-background="new 0 0 125 251" xml:space="preserve">
<path fill="#FF3855" d="M48.849,26.113L36.042,47.834L14.32,35.027l12.807-21.721L48.849,26.113 M60.358,23.141L24.155,1.796
	L2.811,37.999l36.202,21.345L60.358,23.141L60.358,23.141z"/>
<polygon fill="#FF3855" points="124.333,15.311 118.689,9.667 111.916,16.44 105.144,9.667 99.5,15.311 106.273,22.083 99.5,28.856 
	105.144,34.5 111.916,27.727 118.689,34.5 124.333,28.856 117.561,22.083 "/>
<polygon fill="#FF3855" points="105.874,187.729 84.455,225.017 47.167,203.595 38.242,219.131 91.065,249.478 121.411,196.655 "/>
<polygon fill="#FF3855" points="83.443,122.263 59.793,128.655 53.402,105.004 43.547,107.667 52.602,141.172 86.106,132.117 "/>
</svg>
