<?xml version="1.0" encoding="utf-8"?>
<!-- Generator: Adobe Illustrator 16.0.0, SVG Export Plug-In . SVG Version: 6.00 Build 0)  -->
<!DOCTYPE svg PUBLIC "-//W3C//DTD SVG 1.1//EN" "http://www.w3.org/Graphics/SVG/1.1/DTD/svg11.dtd">
<svg version="1.1" id="Layer_1" xmlns="http://www.w3.org/2000/svg" xmlns:xlink="http://www.w3.org/1999/xlink" x="0px" y="0px"
	 width="259px" height="155px" viewBox="0 0 259 155" enable-background="new 0 0 259 155" xml:space="preserve">
<g>
	<path fill="#EDEDED" d="M256.782,155H0V0h258.552L256.782,155z M9,146h238.884l1.564-137H9V146z"/>
	<polygon fill="#EDEDED" points="60,115 4,115 4,106 51,106 51,5 60,5 	"/>
	<polygon fill="#EDEDED" points="109,62.523 55.477,62.25 55.523,53.25 100,53.477 100,5 109,5 	"/>
	<polygon fill="#EDEDED" points="124.75,150.528 124.528,115 55,115 55,106 133.472,106 133.75,150.472 	"/>
	<rect x="100" y="58" fill="#EDEDED" width="9" height="53"/>
	<polygon fill="#EDEDED" points="158,115 129,115 129,106 149,106 149,5 158,5 	"/>
	<polygon fill="#EDEDED" points="153.773,115.25 153.727,106.25 197,106.023 197,5 206,5 206,114.977 	"/>
	<rect x="201" y="107" fill="#EDEDEE" width="52" height="9"/>
	<path fill="#FF3855" d="M32.748,31.433l3.819,10.315l-10.315,3.82l-3.819-10.316L32.748,31.433 M34.52,27.578L18.577,33.48
		l5.903,15.942l15.942-5.903L34.52,27.578L34.52,27.578z"/>
	<path fill="#FF3855" d="M37.452,59.493l-0.945,10.959l-10.96-0.944l0.946-10.96L37.452,59.493 M40.698,56.762l-16.937-1.461
		l-1.461,16.938l16.938,1.461L40.698,56.762L40.698,56.762z"/>
	<path fill="#FF3855" d="M85.452,30.493l-0.945,10.959l-10.96-0.944l0.946-10.96L85.452,30.493 M88.698,27.762l-16.937-1.461
		l-1.461,16.938l16.938,1.461L88.698,27.762L88.698,27.762z"/>
	<path fill="#FF3855" d="M129.946,70.527l3.526,10.42l-10.42,3.527l-3.525-10.421L129.946,70.527 M131.826,66.725l-16.103,5.448
		l5.449,16.104l16.104-5.449L131.826,66.725L131.826,66.725z"/>
	<path fill="#FF3855" d="M171.868,129.007l-4.875,9.862l-9.862-4.874l4.876-9.861L171.868,129.007 M175.886,127.647l-15.238-7.534
		l-7.534,15.24l15.24,7.534L175.886,127.647L175.886,127.647z"/>
	<path fill="#FF3855" d="M230.868,64.007l-4.875,9.862l-9.862-4.874l4.876-9.861L230.868,64.007 M234.886,62.647l-15.238-7.534
		l-7.534,15.24l15.24,7.534L234.886,62.647L234.886,62.647z"/>
	<path fill="#FF3855" d="M77.868,129.007l-4.875,9.862l-9.862-4.874l4.876-9.861L77.868,129.007 M81.886,127.647l-15.238-7.534
		l-7.534,15.24l15.24,7.534L81.886,127.647L81.886,127.647z"/>
	<polygon fill="#FF3855" points="187.001,31.344 183.634,29.186 180.396,34.237 175.344,30.999 173.186,34.367 178.237,37.604 
		174.999,42.656 178.367,44.814 181.604,39.763 186.656,43.001 188.814,39.634 183.764,36.396 	"/>
	<polygon fill="#FF3855" points="39.001,123.344 35.634,121.186 32.396,126.237 27.344,122.999 25.186,126.367 30.237,129.604 
		26.999,134.656 30.367,136.814 33.604,131.763 38.656,135.001 40.814,131.634 35.764,128.396 	"/>
	<polygon fill="#FF3855" points="237.001,86.344 233.634,84.186 230.396,89.237 225.344,85.999 223.186,89.367 228.237,92.604 
		224.999,97.656 228.367,99.814 231.604,94.763 236.656,98.001 238.814,94.634 233.764,91.396 	"/>
	<rect x="154" y="51" fill="#EDEDED" width="47" height="9"/>
</g>
</svg>
