<?xml version="1.0" encoding="utf-8"?>
<!-- Generator: Adobe Illustrator 16.0.0, SVG Export Plug-In . SVG Version: 6.00 Build 0)  -->
<!DOCTYPE svg PUBLIC "-//W3C//DTD SVG 1.1//EN" "http://www.w3.org/Graphics/SVG/1.1/DTD/svg11.dtd">
<svg version="1.1" id="Layer_1" xmlns="http://www.w3.org/2000/svg" xmlns:xlink="http://www.w3.org/1999/xlink" x="0px" y="0px"
	 width="157px" height="155px" viewBox="0 0 157 155" enable-background="new 0 0 157 155" xml:space="preserve">
<g>
	<polygon fill="#FF3855" points="88.305,75.735 84.644,72.075 80.252,76.468 75.859,72.075 72.199,75.735 76.592,80.128 
		72.199,84.52 75.859,88.181 80.252,83.787 84.644,88.181 88.305,84.52 83.911,80.128 	"/>
	<polygon fill="#EDEDED" points="156.626,59.969 152.965,56.309 148.573,60.701 144.182,56.309 140.521,59.969 144.914,64.361 
		140.521,68.754 144.182,72.414 148.573,68.021 152.965,72.414 156.626,68.754 152.233,64.361 	"/>
	<polygon fill="#EDEDED" points="112.83,142.306 109.169,138.645 104.777,143.038 100.386,138.645 96.726,142.306 101.118,146.697 
		96.726,151.089 100.386,154.75 104.777,150.357 109.169,154.75 112.83,151.089 108.438,146.697 	"/>
	<polygon fill="#EDEDED" points="16.479,54.713 12.819,51.053 8.426,55.445 4.035,51.053 0.374,54.713 4.767,59.106 0.374,63.498 
		4.035,67.159 8.426,62.766 12.819,67.159 16.479,63.498 12.087,59.106 	"/>
	<polygon fill="#EDEDED" points="97.063,3.91 93.403,0.25 89.011,4.643 84.62,0.25 80.959,3.91 85.352,8.303 80.959,12.695 
		84.62,16.355 89.011,11.962 93.403,16.355 97.063,12.695 92.67,8.303 	"/>
	<path fill="#FF3855" d="M106,54v53H53V54H106 M124,36H36v88h88V36L124,36z"/>
	
		<rect x="18.248" y="105.39" transform="matrix(0.7072 0.7071 -0.7071 0.7072 99.4774 19.5553)" fill="#FF3855" width="15.766" height="48.958"/>
</g>
</svg>
