<?xml version="1.0" encoding="utf-8"?>
<!-- Generator: Adobe Illustrator 16.0.0, SVG Export Plug-In . SVG Version: 6.00 Build 0)  -->
<!DOCTYPE svg PUBLIC "-//W3C//DTD SVG 1.1//EN" "http://www.w3.org/Graphics/SVG/1.1/DTD/svg11.dtd">
<svg version="1.1" id="Layer_1" xmlns="http://www.w3.org/2000/svg" xmlns:xlink="http://www.w3.org/1999/xlink" x="0px" y="0px"
	 width="136px" height="155px" viewBox="0 0 136 155" enable-background="new 0 0 136 155" xml:space="preserve">
<g>
	<path fill="#EDEDED" d="M82.648,136H40.064l-17.23-49.488l8.425-42.235l29.715-9.667l31.438,2.905L108,61.127v23.928L82.648,136z
		 M46.838,126h29.85L98,82.848V63.934L86.668,46.548l-24.56-2.318l-22.549,7.271l-6.831,34.097L46.838,126z"/>
	<path fill="#EDEDED" d="M80.12,154H44.646l-7.614-28.199L85.4,125.08L80.12,154z M51.976,145h20.176l1.784-9.822l-24.506,0.3
		L51.976,145z"/>
	
		<rect x="0.607" y="30.73" transform="matrix(0.7071 0.7071 -0.7071 0.7071 27.3708 3.3316)" fill="#FF3855" width="18.113" height="7.95"/>
	
		<rect x="95.9" y="13.403" transform="matrix(0.707 0.7072 -0.7072 0.707 45.9227 -63.733)" fill="#FF3855" width="7.949" height="20.3"/>
	
		<rect x="121.848" y="47.635" transform="matrix(0.77 0.6381 -0.6381 0.77 65.7389 -67.0169)" fill="#FF3855" width="7.95" height="20.075"/>
	
		<rect x="30.226" y="8.923" transform="matrix(0.4454 0.8954 -0.8954 0.4454 34.9137 -30.5644)" fill="#FF3855" width="23.801" height="7.95"/>
	<path fill="#FF3855" d="M73.115,126H53.188L43.89,91h34.165L73.115,126z M59.316,119h6.883l2.717-20H54.203L59.316,119z"/>
</g>
</svg>
