<?xml version="1.0" encoding="utf-8"?>
<!-- Generator: Adobe Illustrator 16.0.0, SVG Export Plug-In . SVG Version: 6.00 Build 0)  -->
<!DOCTYPE svg PUBLIC "-//W3C//DTD SVG 1.1//EN" "http://www.w3.org/Graphics/SVG/1.1/DTD/svg11.dtd">
<svg version="1.1" id="Layer_1" xmlns="http://www.w3.org/2000/svg" xmlns:xlink="http://www.w3.org/1999/xlink" x="0px" y="0px"
	 width="308px" height="155px" viewBox="0 0 308 155" enable-background="new 0 0 308 155" xml:space="preserve">
<polygon fill="#FF3855" points="165.034,83.736 172.047,76.723 179.061,83.736 181.983,80.814 172.047,70.879 162.111,80.814 "/>
<polygon fill="#FF3855" points="142.638,94.625 139.024,91.013 134.688,95.349 130.353,91.013 126.74,94.625 131.076,98.962 
	126.74,103.298 130.353,106.91 134.688,102.574 139.024,106.91 142.638,103.298 138.301,98.962 "/>
<path fill="#FF3855" d="M148,49v10h-10V49H148 M151,46h-16v16h16V46L151,46z"/>
<polygon fill="none" points="187.002,37 130.877,37 119.047,60 153.43,60 125.874,118 178.914,118 189.713,95 156.159,95 "/>
<polygon fill="none" points="107.143,67 56.158,67 13.063,148 104.196,148 114.623,126 75.877,126 "/>
<polygon fill="none" points="195.104,37 168.063,88 193.064,88 216.896,37 "/>
<polygon fill="none" points="200.964,88 259.196,88 297.179,7 211.158,7 198.906,30 228.147,30 "/>
<polygon fill="none" points="115.244,67 87.782,118 117.975,118 142.179,67 "/>
<polygon fill="#FF3855" points="178.914,118 125.874,118 122.522,126 183.463,126 197.613,95 189.713,95 "/>
<polygon fill="#FF3855" points="216.896,37 193.064,88 200.964,88 228.147,30 198.906,30 195.104,37 "/>
<polygon fill="#FF3855" points="115.244,67 107.143,67 75.877,126 114.623,126 117.975,118 87.782,118 "/>
<polygon fill="#FF3855" points="130.877,37 187.002,37 190.805,30 126.578,30 110.945,60 119.047,60 "/>
<polygon fill="#EDEDED" points="308.43,0 206.859,0 190.805,30 198.906,30 211.158,7 297.179,7 259.196,88 200.964,88 197.613,95 
	263.745,95 "/>
<polygon fill="#FF3855" points="193.064,88 189.713,95 197.613,95 200.964,88 "/>
<polygon fill="#FF3855" points="195.104,37 198.906,30 190.805,30 187.002,37 "/>
<polygon fill="#EDEDED" points="104.196,148 13.063,148 56.158,67 107.143,67 110.945,60 51.859,60 1.159,155 108.745,155 
	122.522,126 114.623,126 "/>
<polygon fill="#FF3855" points="115.244,67 119.047,60 110.945,60 107.143,67 "/>
<polygon fill="#FF3855" points="117.975,118 114.623,126 122.522,126 125.874,118 "/>
<rect x="216" y="14" fill="#EDEDED" width="60" height="7"/>
<rect x="33" y="135" fill="#EDEDED" width="60" height="7"/>
<rect x="237" y="30" fill="#EDEDED" width="36" height="7"/>
<rect x="230" y="45" fill="#EDEDED" width="37" height="7"/>
<rect x="224" y="59" fill="#EDEDED" width="37" height="7"/>
<rect x="217" y="75" fill="#EDEDED" width="37" height="7"/>
<rect x="33" y="118" fill="#EDEDED" width="37" height="8"/>
<rect x="41" y="103" fill="#EDEDED" width="37" height="7"/>
<rect x="50" y="87" fill="#EDEDED" width="37" height="8"/>
<rect x="56" y="74" fill="#EDEDED" width="37" height="7"/>
</svg>
