<?xml version="1.0" encoding="utf-8"?>
<!-- Generator: Adobe Illustrator 16.0.0, SVG Export Plug-In . SVG Version: 6.00 Build 0)  -->
<!DOCTYPE svg PUBLIC "-//W3C//DTD SVG 1.1//EN" "http://www.w3.org/Graphics/SVG/1.1/DTD/svg11.dtd">
<svg version="1.1" id="Layer_1__x2B__Group_1_xA0_Image_1_"
	 xmlns="http://www.w3.org/2000/svg" xmlns:xlink="http://www.w3.org/1999/xlink" x="0px" y="0px" width="160px" height="145px"
	 viewBox="0 0 160 145" enable-background="new 0 0 160 145" xml:space="preserve">
<path fill="#00E5D4" d="M138.288,9.626l10.998,41.907l-41.907,10.998L96.381,20.624L138.288,9.626 M143.282,1.078L87.833,15.63
	l14.552,55.449l55.448-14.552L143.282,1.078L143.282,1.078z"/>
<polygon id="arrow-24_1_" fill="#00E5D4" points="11.674,62.283 19.304,60.234 23.116,75.318 38.2,71.508 40.019,79.193 
	17.479,84.768 "/>
<polygon id="plus-1" fill="#00E5D4" points="60.271,29.68 50.671,20.079 60.271,10.477 53.873,4.079 44.271,13.68 34.672,4.079 
	28.271,10.477 37.873,20.079 28.271,29.68 34.672,36.079 44.271,26.477 53.873,36.079 "/>
<path fill="#00E5D4" d="M11.938,111.195l22.553,5.476l-5.473,22.552l-22.552-5.475L11.938,111.195 M9.182,106.669l-7.243,29.838
	l29.838,7.241l7.241-29.84L9.182,106.669L9.182,106.669z"/>
<path fill="#00E5D4" d="M72.21,96.945l22.554,5.476l-5.475,22.552l-22.551-5.475L72.21,96.945 M69.453,92.419l-7.243,29.838
	l29.838,7.241l7.241-29.84L69.453,92.419L69.453,92.419z"/>
</svg>
