<?xml version="1.0" encoding="utf-8"?>
<!-- Generator: Adobe Illustrator 16.0.0, SVG Export Plug-In . SVG Version: 6.00 Build 0)  -->
<!DOCTYPE svg PUBLIC "-//W3C//DTD SVG 1.1//EN" "http://www.w3.org/Graphics/SVG/1.1/DTD/svg11.dtd">
<svg version="1.1" id="Group_1_xA0_Image_1_" xmlns="http://www.w3.org/2000/svg" xmlns:xlink="http://www.w3.org/1999/xlink"
	 x="0px" y="0px" width="160px" height="233px" viewBox="0 0 160 233" enable-background="new 0 0 160 233" xml:space="preserve">
<path fill="#00E5D4" d="M138.038,169.376l10.998,41.907l-41.907,10.998l-10.998-41.907L138.038,169.376 M143.032,160.828
	L87.583,175.38l14.552,55.449l55.448-14.552L143.032,160.828L143.032,160.828z"/>
<path fill="#00E5D4" d="M18.709,33.253L38.748,44.96L27.042,64.998L7.004,53.291L18.709,33.253 M17.366,28.125L1.876,54.636
	l26.512,15.488l15.488-26.513L17.366,28.125L17.366,28.125z"/>
<path fill="#00E5D4" d="M116.23,5.627l12.345,19.653l-19.651,12.343L96.58,17.97L116.23,5.627 M117.413,0.459l-26,16.331l16.331,26
	l26.001-16.333L117.413,0.459L117.413,0.459z"/>
<polygon id="plus-1" fill="#00E5D4" points="36.771,156.435 27.171,146.833 36.771,137.231 30.373,130.833 20.771,140.435 
	11.172,130.833 4.771,137.231 14.373,146.833 4.771,156.435 11.172,162.833 20.771,153.231 30.373,162.833 "/>
<polygon id="arrow-24_1_" fill="#00E5D4" points="119.583,106.876 115.638,113.72 102.274,105.75 94.304,119.109 87.583,114.961 
	99.58,95.083 "/>
</svg>
