<?xml version="1.0" encoding="utf-8"?>
<!-- Generator: Adobe Illustrator 16.0.0, SVG Export Plug-In . SVG Version: 6.00 Build 0)  -->
<!DOCTYPE svg PUBLIC "-//W3C//DTD SVG 1.1//EN" "http://www.w3.org/Graphics/SVG/1.1/DTD/svg11.dtd">
<svg version="1.1" id="Group_1_xA0_Image_1_" xmlns="http://www.w3.org/2000/svg" xmlns:xlink="http://www.w3.org/1999/xlink"
	 x="0px" y="0px" width="192px" height="196px" viewBox="0 0 192 196" enable-background="new 0 0 192 196" xml:space="preserve">
<path fill="#00E5D4" d="M51.038,9.376l10.998,41.907L20.129,62.281L9.131,20.374L51.038,9.376 M56.032,0.828L0.583,15.38
	l14.552,55.449l55.448-14.552L56.032,0.828L56.032,0.828z"/>
<path fill="#00E5D4" d="M89.376,100.587l20.038,11.707l-11.706,20.037l-20.037-11.707L89.376,100.587 M88.032,95.459l-15.489,26.511
	l26.511,15.488l15.489-26.512L88.032,95.459L88.032,95.459z"/>
<polygon id="arrow-24" fill="#00E5D4" points="190.939,67.773 176.944,71.534 169.952,43.859 142.277,50.852 138.939,36.75 
	180.292,26.525 "/>
<polygon id="arrow-24_1_" fill="#00E5D4" points="71.894,181.209 67.948,188.053 54.586,180.082 46.615,193.443 39.894,189.294 
	51.891,169.416 "/>
<polygon id="plus-1" fill="#00E5D4" points="175.772,169.601 166.171,160 175.772,150.399 169.373,144 159.772,153.602 150.172,144 
	143.772,150.399 153.373,160 143.772,169.601 150.172,176 159.772,166.399 169.373,176 "/>
</svg>
