<?xml version="1.0" encoding="UTF-8"?>
<svg width="68px" height="52px" viewBox="0 0 68 52" version="1.1" xmlns="http://www.w3.org/2000/svg" xmlns:xlink="http://www.w3.org/1999/xlink">
    <!-- Generator: sketchtool 52.2 (67145) - http://www.bohemiancoding.com/sketch -->
    <title>6FB27FC0-3EEE-4BF9-8487-B6B833299658</title>
    <desc>Created with sketchtool.</desc>
    <g id="Page-1" stroke="none" stroke-width="1" fill="none" fill-rule="evenodd">
        <g id="Cards" transform="translate(-1108.000000, -518.000000)" fill="#FF185B" fill-rule="nonzero">
            <g id="Group-7-Copy-3" transform="translate(994.000000, 498.000000)">
                <g id="Group-2" transform="translate(0.000000, 20.000000)">
                    <g id="connect" transform="translate(114.000000, 0.000000)">
                        <path d="M61.4960995,24.5652867 C60.7041957,10.8941083 48.6763652,0 34.001265,0 C24.1813198,0 15.5504954,4.88057325 10.6734135,12.2038216 L8.14674257,12.2038216 L8.14421253,12.2038216 C3.65254058,12.2070063 0,15.6576433 0,19.8980891 C0,23.6082802 2.79654228,26.7133758 6.50390049,27.4347133 C7.29580434,41.1050955 19.3236348,51.9984076 33.9978916,52 L33.9995783,52 L34.001265,52 C43.8203668,52 52.4503479,47.1194268 57.3265866,39.7961784 L59.8498841,39.7961784 C64.3432427,39.7961784 68,36.3447452 68,32.1019109 C68,28.3917198 65.2034578,25.2866242 61.4960995,24.5652867 Z M9.89921992,27.5923566 L21.8562092,27.5923566 L18.2719797,30.9761147 L20.6569682,33.227707 L27.120388,27.1257962 C27.7798862,26.5039809 27.7798862,25.4960191 27.120388,24.8742038 L20.6569682,18.772293 L18.2719797,21.0238853 L21.8562092,24.4076434 L9.89921992,24.4076434 C10.1370441,21.169586 11.0908708,18.1170382 12.6164875,15.388535 L32.3145689,15.388535 L32.3145689,36.611465 L12.6164875,36.611465 C11.0908708,33.8829618 10.1370441,30.830414 9.89921992,27.5923566 Z M42.8690703,12.2038216 L35.6871179,12.2038216 L35.6871179,3.48248408 C38.4583597,4.41958599 41.0845457,7.59315286 42.8690703,12.2038216 Z M32.3145689,3.4705414 L32.3145689,12.2038216 L25.1275564,12.2038216 C26.9238878,7.52308917 29.5171832,4.38455413 32.3145689,3.4705414 Z M32.3145689,39.7961784 L32.3145689,48.5302547 C29.5163399,47.6170382 26.9230445,44.477707 25.1275564,39.7961784 L32.3145689,39.7961784 Z M35.6871179,48.5167197 L35.6871179,39.7961784 L42.8673835,39.7961784 C41.0828589,44.4052547 38.4575163,47.5788217 35.6871179,48.5167197 Z M35.6871179,36.611465 L35.6871179,15.388535 L55.3835125,15.388535 C56.9091292,18.1170382 57.8629559,21.169586 58.1007801,24.4076434 L46.1437908,24.4076434 L49.7280203,21.0238853 L47.3430318,18.772293 L40.879612,24.8742038 C40.2209572,25.4960191 40.2209572,26.5039809 40.879612,27.1257962 L47.3430318,33.227707 L49.7280203,30.9761147 L46.1437908,27.5923566 L58.1007801,27.5923566 C57.8629559,30.830414 56.9091292,33.8829618 55.3835125,36.611465 L35.6871179,36.611465 Z M53.2304449,12.2038216 L46.4381193,12.2038216 C45.3864643,9.15047771 44.0269872,6.59315287 42.4389627,4.62261147 C46.7535315,6.14570064 50.4853469,8.80095541 53.2304449,12.2038216 Z M25.562724,4.62261147 C23.9746996,6.59315287 22.6143791,9.15047771 21.562724,12.2038216 L14.7695551,12.2038216 C17.5154965,8.80095541 21.2481552,6.14490446 25.562724,4.62261147 Z M3.37339237,19.8980891 C3.37339237,17.4116242 5.51633987,15.388535 8.15011596,15.388535 L8.86780519,15.388535 C7.58169934,18.0931528 6.77208518,21.0406051 6.53847775,24.1377389 C4.69660552,23.5119427 3.37339237,21.8503184 3.37339237,19.8980891 Z M14.7695551,39.7961784 L21.562724,39.7961784 C22.6135357,42.8487261 23.9730128,45.406051 25.5610373,47.3765923 C21.2464685,45.8542993 17.5146532,43.1990446 14.7695551,39.7961784 Z M42.4364327,47.3781847 C44.0244571,45.4076433 45.3847775,42.8495223 46.4364326,39.7961784 L53.2304449,39.7961784 C50.4845035,43.1998407 46.7518448,45.8550956 42.4364327,47.3781847 Z M59.8498841,36.611465 L59.1321948,36.611465 C60.4183006,33.9068472 61.2279148,30.9593949 61.4615223,27.8622611 C63.3033945,28.4880573 64.6266076,30.1496816 64.6266076,32.1019109 C64.6266076,34.5883758 62.4836602,36.611465 59.8498841,36.611465 Z" id="more-org-icon"></path>
                    </g>
                </g>
            </g>
        </g>
    </g>
</svg>