<?xml version="1.0" encoding="UTF-8"?>
<svg width="54px" height="54px" viewBox="0 0 54 54" version="1.1" xmlns="http://www.w3.org/2000/svg" xmlns:xlink="http://www.w3.org/1999/xlink">
    <!-- Generator: sketchtool 52.2 (67145) - http://www.bohemiancoding.com/sketch -->
    <title>1C6FA818-2523-4A04-9151-2F204B1CA66C</title>
    <desc>Created with sketchtool.</desc>
    <g id="Page-1" stroke="none" stroke-width="1" fill="none" fill-rule="evenodd">
        <g id="Cards" transform="translate(-485.000000, -518.000000)" fill="#FF185B">
            <g id="Group-7-Copy" transform="translate(364.000000, 498.000000)">
                <g id="Group-2" transform="translate(0.000000, 20.000000)">
                    <g id="discover" transform="translate(121.000000, 0.000000)">
                        <path d="M27.9996125,48 C15.8690575,48 6,38.1301676 6,25.9996125 C6,13.8690575 15.8690575,4 27.9996125,4 C40.1309426,4 50,13.8690575 50,25.9996125 C50,38.1301676 40.1309426,48 27.9996125,48 Z M27.9996125,7.10006517 C17.5787434,7.10006517 9.10006517,15.5787434 9.10006517,25.9996125 C9.10006517,36.4212566 17.5787434,44.8999348 27.9996125,44.8999348 C38.4212566,44.8999348 46.8999348,36.4212566 46.8999348,25.9996125 C46.8999348,15.5787434 38.4212566,7.10006517 27.9996125,7.10006517 Z" id="Fill-1" fill-rule="nonzero"></path>
                        <path d="M26.9996137,54 C12.1123589,54 0,41.8872946 0,26.9988412 C0,12.1111604 12.1123589,0 26.9996137,0 C41.8876411,0 54,12.1111604 54,26.9988412 C54,41.8872946 41.8876411,54 26.9996137,54 Z M26.9996137,3.09017296 C13.8165405,3.09017296 3.09008455,13.8153907 3.09008455,26.9988412 C3.09008455,40.1830642 13.8165405,50.909827 26.9996137,50.909827 C40.1834595,50.909827 50.9099155,40.1830642 50.9099155,26.9988412 C50.9099155,13.8153907 40.1834595,3.09017296 26.9996137,3.09017296 Z" id="Fill-2" fill-rule="nonzero"></path>
                        <path d="M25.4390093,11.4398763 C26.0251795,10.8529625 26.9749235,10.8537868 27.5602693,11.4398763 C28.1464394,12.0251416 28.1464394,12.9755794 27.5610937,13.5608447 C26.9749235,14.1469343 26.0251795,14.14611 25.4390093,13.5600204 C24.8536636,12.9747551 24.8536636,12.0251416 25.4390093,11.4398763" id="Fill-3"></path>
                        <path d="M40.4385972,26.4392005 C41.0247674,25.8530505 41.9745113,25.8538749 42.5606815,26.4400249 C43.1460272,27.0253505 43.1468516,27.9750619 42.5606815,28.5603875 C41.9745113,29.1465375 41.0247674,29.1465375 40.4394217,28.5603875 C39.854076,27.9750619 39.8532516,27.0245261 40.4385972,26.4392005" id="Fill-4"></path>
                        <path d="M25.4388615,40.4392581 C26.0241468,39.8531686 26.9746172,39.8539929 27.5607269,40.4392581 C28.1460121,41.0253477 28.1468365,41.9749612 27.5607269,42.5602265 C26.9746172,43.1471404 26.0241468,43.1463161 25.4396858,42.5594022 C24.8544005,41.9749612 24.8527518,41.0245234 25.4388615,40.4392581" id="Fill-5"></path>
                        <path d="M11.4392005,26.4386851 C12.0245261,25.8533595 12.9742375,25.8541839 13.5603875,26.4386851 C14.1465375,27.0256595 14.1465375,27.9745466 13.5603875,28.5606966 C12.9750619,29.1468466 12.0253505,29.1460222 11.4400249,28.5606966 C10.8538749,27.9745466 10.8530505,27.0240107 11.4392005,26.4386851" id="Fill-6"></path>
                        <path d="M39.9706107,10.2830902 C39.1476619,9.81024642 38.0985591,9.93938862 37.4221915,10.5983195 L26.5071256,21.2306972 C25.3721681,21.7228616 24.3837919,22.4946648 23.6414627,23.5033985 C22.6447104,24.8588842 22.2018258,26.4838403 22.3588771,28.126083 L18.0839404,42.3978333 C17.8159062,43.2896271 18.2053934,44.2454835 19.0293893,44.7162937 C19.360244,44.907465 19.7287911,45 20.0941972,45 C20.6365476,45 21.1736631,44.7956094 21.5778085,44.4020813 L32.6666779,33.5988696 C35.0015074,32.4182852 36.5060589,30.0357622 36.4756956,27.4254605 L40.9160596,12.6015506 C41.1840939,11.7097569 40.7946066,10.7549173 39.9706107,10.2830902 Z M31.9280979,27.0330766 C32.0020551,27.4754321 31.9583058,27.9074762 31.8364326,28.3106486 C31.7103929,28.7251634 31.4926879,29.1004953 31.1999841,29.4160216 C30.7812406,29.8697195 30.2208326,30.2017438 29.5614678,30.3100126 C28.8031461,30.4337484 28.0416996,30.2594872 27.4167092,29.819194 C26.7906772,29.3768386 26.377142,28.7200078 26.2511023,27.9693441 C26.1719369,27.5001792 26.2240194,27.0330766 26.3729754,26.5948457 C26.4635989,26.3319073 26.5792221,26.0772178 26.7469279,25.844182 C26.8354682,25.7214774 26.9385916,25.6142397 27.0427567,25.5090643 C27.4656668,25.0811447 28.0073252,24.7903656 28.6166907,24.6903458 C28.7760632,24.6645675 28.9375191,24.6511628 29.0968916,24.6511628 C29.3562626,24.6511628 29.6104254,24.6924081 29.8583382,24.7604627 C30.178125,24.8481089 30.4843702,24.9852494 30.7614492,25.1821955 C30.8999887,25.280153 31.0249868,25.3925464 31.1416517,25.5111265 C31.5531037,25.9246103 31.8291411,26.4484251 31.9280979,27.0330766 Z" id="Fill-7" fill-rule="nonzero"></path>
                    </g>
                </g>
            </g>
        </g>
    </g>
</svg>