<?xml version="1.0" encoding="UTF-8"?>
<svg width="68px" height="39px" viewBox="0 0 68 39" version="1.1" xmlns="http://www.w3.org/2000/svg" xmlns:xlink="http://www.w3.org/1999/xlink">
    <!-- Generator: sketchtool 52.2 (67145) - http://www.bohemiancoding.com/sketch -->
    <title>BDC284AA-F2C5-4A16-A00D-B8142906B6C7</title>
    <desc>Created with sketchtool.</desc>
    <g id="Page-1" stroke="none" stroke-width="1" fill="none" fill-rule="evenodd">
        <g id="Cards" transform="translate(-161.000000, -522.000000)" fill="#FF185B" fill-rule="nonzero">
            <g id="Group-7" transform="translate(48.000000, 498.000000)">
                <g id="Group-2" transform="translate(0.000000, 24.000000)">
                    <g id="learn" transform="translate(113.000000, 0.000000)">
                        <path d="M66.8732791,30.5140952 L63.7717073,28.096508 L63.7717073,23.2019048 C63.7717073,22.5316825 63.3644806,21.9283175 62.7403433,21.6749206 L55.610551,18.7695238 L55.610551,17.6057143 L66.3796206,13.9896508 C67.0552846,13.763492 67.5098826,13.1345396 67.5098826,12.4263492 C67.5098826,11.7181587 67.0552846,11.0892063 66.3796206,10.8622223 L34.2868293,0.0866666667 C33.9411021,-0.0288888889 33.5679494,-0.0288888889 33.2222222,0.0866666667 L1.13026197,10.8622223 C0.454598013,11.0892063 0,11.7181587 0,12.4263492 C0,13.1345396 0.454598013,13.763492 1.13026197,13.9896508 L11.8985005,17.6057143 L11.8985005,30.299492 C11.8985005,30.9721905 12.3090515,31.576381 12.9365131,31.8297777 L13.4883469,32.0518095 C24.0496477,36.3042539 29.4757362,38.4527619 34.4513821,38.4527619 C39.5325745,38.4527619 44.1425474,36.2109842 53.2669196,31.6812063 L54.6913821,30.9746667 C55.2548509,30.6948571 55.610551,30.1228571 55.610551,29.4972063 L55.610551,22.3385396 L60.4474074,24.3087619 L60.4474074,28.0816508 L57.5137127,30.2986667 C56.7831978,30.8508571 56.641084,31.8859048 57.1970732,32.6114286 C57.5236856,33.0389842 58.0198374,33.263492 58.5218067,33.263492 C58.8716893,33.263492 59.2257272,33.1537143 59.5257453,32.9259048 L60.4474074,32.2300952 L60.4474074,32.8730794 C60.4474074,33.7851429 61.1912195,34.523873 62.1095574,34.523873 C63.0270641,34.523873 63.7717073,33.7851429 63.7717073,32.8730794 L63.7717073,32.2936508 L64.821355,33.111619 C65.5427281,33.6728889 66.5873893,33.5490794 67.1550136,32.8318095 C67.7218067,32.1145396 67.5954833,31.0770158 66.8732791,30.5140952 Z M33.7549413,3.39320635 L60.6576694,12.4263492 L49.3558808,16.2206984 L34.3857272,10.1201905 C33.5380307,9.7743492 32.5648419,10.1771429 32.2166215,11.0206984 C31.8684011,11.8642539 32.2739657,12.8291429 33.1241554,13.1749842 L44.5547606,17.8326984 L33.7549413,21.459492 L6.85221319,12.4263492 L33.7549413,3.39320635 Z M52.2870822,28.4770158 L51.7809575,28.7271111 C43.2433243,32.9663492 38.9566396,35.0933968 34.5411382,35.1297143 C34.5012466,35.1305396 34.4621861,35.1305396 34.4222945,35.1305396 C31.6780849,35.1305396 28.6695935,34.3414604 24.3862331,32.7781587 L24.3862331,27.2092063 C24.3862331,26.2971429 23.642421,25.5575873 22.7240831,25.5575873 C21.8065763,25.5575873 21.0619332,26.2971429 21.0619332,27.2092063 L21.0619332,31.5153016 C20.7070641,31.3766349 20.3488708,31.2363175 19.9782114,31.0902223 L19.9782114,22.4945396 C19.9782114,21.5824762 19.2335682,20.8437461 18.3160614,20.8437461 C17.3977236,20.8437461 16.6539115,21.5824762 16.6539115,22.4945396 L16.6539115,29.7629842 C16.1851852,29.5747937 15.7139657,29.3857777 15.2228004,29.1876825 L15.2228004,18.7216508 L33.2222222,24.7660318 C33.3950858,24.8238095 33.574598,24.8526984 33.7549413,24.8526984 C33.9352846,24.8526984 34.1139657,24.8238095 34.2868293,24.7660318 L49.2436856,19.743492 L52.2870822,20.9832381 L52.2870822,28.4770158 Z" id="home-learn"></path>
                    </g>
                </g>
            </g>
        </g>
    </g>
</svg>