<?xml version="1.0" encoding="UTF-8"?>
<svg width="41px" height="51px" viewBox="0 0 41 51" version="1.1" xmlns="http://www.w3.org/2000/svg" xmlns:xlink="http://www.w3.org/1999/xlink">
    <!-- Generator: sketchtool 52.2 (67145) - http://www.bohemiancoding.com/sketch -->
    <title>DF72C289-C003-4A22-BFF5-49D7B4FD07BC</title>
    <desc>Created with sketchtool.</desc>
    <g id="Page-1" stroke="none" stroke-width="1" fill="none" fill-rule="evenodd">
        <g id="Cards" transform="translate(-806.000000, -519.000000)" fill="#FF185B">
            <g id="Group-7-Copy-2" transform="translate(679.000000, 498.000000)">
                <g id="Group-2" transform="translate(0.000000, 21.000000)">
                    <g id="start" transform="translate(127.000000, 0.000000)">
                        <path d="M40.8506447,29.5974075 L35.6656681,19.3212008 L40.3921233,9.97116413 C40.6084199,9.54396652 40.5893148,9.03326182 40.3416314,8.62331774 C40.0939479,8.2126836 39.6531669,7.96285239 39.1782697,7.96285239 L28.1839903,7.9580214 L28.1860373,3.95865153 C28.1860373,3.19604519 27.5753577,2.57836857 26.8220725,2.57767842 L14.758592,2.57215729 L14.7592744,1.3809731 C14.7599567,0.618366765 14.1492771,0 13.3953096,0 C13.3953096,0 13.3953096,0 13.3946273,0 C12.641342,0 12.0306625,0.616986482 12.0299801,1.37959282 L12.0286155,3.94898955 L12.0286155,3.95105997 L12.0197453,24.8326707 L12.0197453,24.8361214 L12.0115574,43.2352933 L6.36533,43.2325327 L6.36464768,43.2325327 C5.61136248,43.2325327 5.00000057,43.8502093 5.00000057,44.6121255 C4.99931825,45.3747319 5.60999783,45.9924084 6.36396536,45.9930986 L20.7794151,46 L20.7800974,46 C21.5333826,46 22.1440622,45.3823234 22.1447445,44.6204072 C22.1447445,43.8578009 21.5340649,43.2401242 20.7807797,43.2394341 L14.7408516,43.2366735 L14.7483572,26.2143339 L19.6065009,26.2164043 L19.6044539,30.2164644 C19.6044539,30.9783806 20.2151335,31.5974375 20.9684187,31.5974375 L39.6347442,31.605029 L39.6354265,31.605029 C40.1103237,31.605029 40.5511047,31.355888 40.7987882,30.9459439 C41.0471539,30.53669 41.0669413,30.0252952 40.8506447,29.5974075 Z M14.7497219,23.4537681 L14.7579097,5.33272321 L25.4560607,5.3375542 L25.4485551,23.458599 L22.3364774,23.4572188 L19.6071833,23.4558384 L14.7497219,23.4537681 Z M22.3351128,27.4068984 L22.3357951,26.2177847 L23.5134856,26.2184748 L22.3351128,27.4068984 Z M24.7812427,28.8382518 L27.7759608,25.8168124 L27.7766431,25.8161223 C27.8421462,25.7498687 27.8994614,25.6787842 27.9485886,25.6035587 C27.9772463,25.5600798 27.997716,25.51246 28.0215972,25.4662206 C28.0386554,25.4324037 28.0598074,25.399967 28.0741362,25.3654599 C28.0966529,25.3102486 28.1102993,25.2515866 28.1253104,25.1936147 C28.132816,25.1646288 28.1450979,25.1370231 28.1505564,25.1080372 C28.1676145,25.0203892 28.177167,24.9306708 28.177167,24.8402622 L28.183308,10.7185873 L36.947754,10.7227281 L32.9179511,18.6924819 C32.7187126,19.0865527 32.7187126,19.5537785 32.9179511,19.9478493 L37.4062755,28.843773 L24.7812427,28.8382518 Z" id="Fill-1" fill-rule="nonzero"></path>
                        <path d="M23.6025273,48.0097184 L1.3988708,48 C1.3988708,48 1.3988708,48 1.39817171,48 C0.626381249,48 5.84602485e-07,48.668328 5.84602485e-07,49.4943932 C-0.000698500562,50.319711 0.625682163,50.9902816 1.39747262,50.9902816 L23.6011291,51 L23.6018282,51 C24.3736187,51 24.9999994,50.3316721 24.9999994,49.5056068 C25.0006984,48.680289 24.3750169,48.0097184 23.6025273,48.0097184" id="Fill-2"></path>
                    </g>
                </g>
            </g>
        </g>
    </g>
</svg>