<?xml version="1.0" encoding="UTF-8" standalone="no"?>
<svg width="441px" height="400px" viewBox="0 0 441 400" version="1.1" xmlns="http://www.w3.org/2000/svg" xmlns:xlink="http://www.w3.org/1999/xlink">
    <!-- Generator: sketchtool 39.1 (31720) - http://www.bohemiancoding.com/sketch -->
    <title>80B244D5-8E87-48F1-9981-A4A6F684AA4D</title>
    <desc>Created with sketchtool.</desc>
    <defs></defs>
    <g id="landingpage" stroke="none" stroke-width="1" fill="none" fill-rule="evenodd">
        <g id="Desktop" transform="translate(-464.000000, -124.000000)" fill="#0D1344">
            <g id="landing">
                <path d="M901.652297,124 L506.490899,124 C505.154235,124 504.071598,125.082637 504.071598,126.419301 L504.071598,291.295887 C504.071598,292.63255 505.154235,293.715188 506.490899,293.715188 L530.266581,293.715188 C531.603245,293.715188 532.685883,292.63255 532.685883,291.295887 L532.685883,153.823935 C532.685883,153.156208 533.227806,152.614285 533.895533,152.614285 L874.247662,152.614285 C874.91539,152.614285 875.457313,153.156208 875.457313,153.823935 L875.457313,494.176065 C875.457313,494.843792 874.91539,495.385715 874.247662,495.385715 L533.895533,495.385715 C533.227806,495.385715 532.685883,494.843792 532.685883,494.176065 L532.685883,386.542565 C532.685883,385.951045 533.447962,385.710325 533.786665,386.195395 L551.532239,411.562977 C551.961665,412.144819 552.802372,412.223447 553.330989,411.729909 L572.374518,393.957723 C572.863217,393.502894 572.88983,392.737185 572.433791,392.248486 L520.147854,336.2211 C519.191021,335.196526 517.56646,335.196526 516.609626,336.2211 L464.324899,392.248486 C463.87007,392.737185 463.895473,393.502894 464.384171,393.957723 L483.427701,411.729909 C483.956318,412.223447 484.797025,412.144819 485.226451,411.562977 L502.970816,386.195395 C503.310728,385.711535 504.071598,385.951045 504.071598,386.542565 L504.071598,521.580699 C504.071598,522.917363 505.154235,524 506.490899,524 L901.652297,524 C902.98896,524 904.071598,522.917363 904.071598,521.580699 L904.071598,126.419301 C904.071598,125.082637 902.98896,124 901.652297,124" id="Fill-1"></path>
            </g>
        </g>
    </g>
</svg>