<?xml version="1.0" encoding="UTF-8" standalone="no"?>
<svg width="109px" height="28px" viewBox="0 0 109 28" version="1.1" xmlns="http://www.w3.org/2000/svg" xmlns:xlink="http://www.w3.org/1999/xlink">
    <!-- Generator: sketchtool 39.1 (31720) - http://www.bohemiancoding.com/sketch -->
    <title>9D721751-1C3D-4835-A84B-F5B9E7623A03</title>
    <desc>Created with sketchtool.</desc>
    <defs></defs>
    <g id="landingpage" stroke="none" stroke-width="1" fill="none" fill-rule="evenodd">
        <g id="Desktop" transform="translate(-204.000000, -16.000000)" fill="#FFFFFF">
            <g id="top-bar">
                <g id="upframe-logo" transform="translate(204.000000, 16.000000)">
                    <path d="M8.54369091,15.0393515 C8.54369091,16.5893212 7.69350909,17.7347758 6.17175152,17.7347758 C4.68075152,17.7347758 3.93493333,16.8542606 3.93493333,15.0934424 L3.93493333,7.16944242 L8.48484847e-05,7.16944242 L8.48484847e-05,15.9287758 C8.48484847e-05,19.2467758 1.87693333,21.4002303 5.1476303,21.4002303 C6.85478182,21.4002303 8.0585697,20.8342909 8.75941818,19.7022 L8.75941818,21.1036848 L12.4785394,21.1036848 L12.4785394,7.16944242 L8.54369091,7.16944242 L8.54369091,15.0393515 Z" id="Fill-1"></path>
                    <path d="M22.9460212,18.0310242 C20.8962939,18.0310242 19.6577182,16.5712061 19.6577182,14.4733273 L19.6577182,13.8265697 C19.6577182,11.7291152 20.8965061,10.2690848 22.9460212,10.2690848 C25.1079606,10.2690848 26.3149303,11.8903273 26.3149303,14.1500545 C26.3149303,16.4089333 25.1073242,18.0310242 22.9460212,18.0310242 M23.5658394,6.89975152 C21.6792333,6.89975152 20.3046879,7.47481212 19.442203,8.62472121 L19.442203,7.1695697 L15.7228697,7.1695697 L15.7228697,27.9765394 L19.6577182,27.9765394 L19.6577182,19.9178424 C20.5562636,20.9061152 21.8589,21.4001455 23.5658394,21.4001455 C27.6718697,21.4001455 30.3038697,18.3335091 30.3038697,14.1500545 C30.3038697,9.96723636 27.6716576,6.89975152 23.5658394,6.89975152" id="Fill-3"></path>
                    <path d="M34.1573485,5.74089091 L34.1573485,7.16952727 L31.6237727,7.16952727 L31.6237727,10.5653758 L34.1573485,10.5653758 L34.1573485,21.1035576 L38.0654697,21.1035576 L38.0654697,10.5653758 L41.2996818,10.5653758 L41.2996818,7.16952727 L38.0654697,7.16952727 L38.0654697,5.63313333 C38.0654697,4.29549697 39.0668939,3.42304242 40.4104697,3.42304242 C40.6976818,3.42304242 41.0033485,3.44107273 41.3268333,3.47713333 L41.3268333,0.0810727273 C40.913197,0.0271939394 40.4550152,4.24242424e-05 39.9522879,4.24242424e-05 C36.4580152,4.24242424e-05 34.1573485,2.25446667 34.1573485,5.74089091" id="Fill-6"></path>
                    <path d="M47.4711152,8.75971515 L47.4711152,7.16944242 L43.6709636,7.16944242 L43.6709636,21.1036848 L47.6058121,21.1036848 L47.6058121,14.0423818 C47.6058121,11.9907455 49.1767818,10.8351091 51.2982061,10.8351091 L51.2982061,7.03474545 C49.4835091,7.03474545 48.2078121,7.60959394 47.4711152,8.75971515" id="Fill-8"></path>
                    <path d="M86.4764515,6.89315455 C84.553997,6.89315455 83.1255727,7.63006364 82.1911788,9.10345758 C81.2387545,7.63006364 79.7833909,6.89315455 77.8248758,6.89315455 C76.0999061,6.89315455 74.8783,7.45909394 74.1594212,8.59118485 L74.1594212,7.16276061 L70.4400879,7.16276061 L70.4400879,21.097003 L74.3751485,21.097003 L74.3751485,13.3617909 C74.3751485,11.7392758 75.2883303,10.5586091 76.8815727,10.5586091 C78.4300576,10.5586091 79.1457545,11.7146697 79.1457545,13.3348515 L79.1457545,21.097003 L83.080603,21.097003 L83.080603,12.8766697 C83.2475424,11.5400939 84.0550879,10.5586091 85.5062091,10.5586091 C87.115997,10.5586091 87.8240576,11.6603667 87.8240576,13.3348515 L87.8240576,21.097003 L91.7591182,21.097003 L91.7591182,12.553397 C91.7591182,9.19488182 89.7711182,6.89315455 86.4764515,6.89315455" id="Fill-10"></path>
                    <path d="M98.5033636,12.7689333 C98.6066667,11.0817212 99.636303,9.96575152 101.387152,9.96575152 C103.150515,9.96575152 104.039303,11.0547818 104.109091,12.7689333 L98.5033636,12.7689333 Z M101.414091,6.89317576 C97.1315758,6.89317576 94.3256364,9.80135758 94.3256364,14.1434788 C94.3256364,18.504903 97.186303,21.3935697 101.521848,21.3935697 C104.725939,21.3935697 107.430273,19.5400545 107.936606,16.8654182 L103.974394,16.6770545 C103.669152,17.7009636 102.815576,18.2132364 101.414091,18.2132364 C99.6303636,18.2132364 98.5737879,17.1110545 98.5033636,15.3831152 L108.071303,15.3831152 L108.071303,13.8199939 C108.071303,9.6195697 105.556818,6.89317576 101.414091,6.89317576 L101.414091,6.89317576 Z" id="Fill-12"></path>
                    <path d="M63.2422636,14.4701667 C63.2422636,16.5686818 62.0030515,18.0295606 59.9524758,18.0295606 C57.7896879,18.0295606 56.5820818,16.4074697 56.5820818,14.1466818 C56.5820818,11.8858939 57.7896879,10.263803 59.9524758,10.263803 C62.0030515,10.263803 63.2422636,11.7246818 63.2422636,13.823197 L63.2422636,14.4701667 Z M63.4579909,7.16959091 L63.4579909,8.61880303 C62.5950818,7.4684697 61.2199,6.89319697 59.3324455,6.89319697 C55.2247182,6.89319697 52.5912333,9.96195455 52.5912333,14.1466818 C52.5912333,18.3314091 55.2247182,21.4001667 59.3324455,21.4001667 C61.2199,21.4001667 62.5950818,20.8248939 63.4579909,19.6745606 L63.4579909,21.1036212 L67.1790212,21.1036212 L67.1790212,14.1466818 L67.1790212,7.16959091 L63.4579909,7.16959091 Z" id="Fill-14"></path>
                </g>
            </g>
        </g>
    </g>
</svg>