<svg id="Layer_1" data-name="Layer 1" xmlns="http://www.w3.org/2000/svg" viewBox="0 0 558.43 167.49"><defs><style>.cls-1{fill:silver;}</style></defs><title>Spotify</title><path class="cls-1" d="M88,1.28A83.74,83.74,0,1,0,171.74,85,83.74,83.74,0,0,0,88,1.28ZM126.4,122.06a5.22,5.22,0,0,1-7.18,1.74c-19.67-12-44.42-14.73-73.57-8.07a5.22,5.22,0,1,1-2.32-10.17c31.9-7.29,59.26-4.15,81.34,9.33A5.22,5.22,0,0,1,126.4,122.06Zm10.25-22.8a6.53,6.53,0,0,1-9,2.15c-22.5-13.83-56.82-17.84-83.45-9.76a6.53,6.53,0,1,1-3.79-12.49c30.42-9.23,68.23-4.76,94.07,11.13A6.53,6.53,0,0,1,136.65,99.26Zm.88-23.74c-27-16-71.52-17.5-97.29-9.68a7.83,7.83,0,1,1-4.55-15c29.58-9,78.76-7.24,109.83,11.2a7.83,7.83,0,0,1-8,13.47Z" transform="translate(-4.25 -1.28)"/><path class="cls-1" d="M232.09,78.59c-14.46-3.45-17-5.87-17-11,0-4.8,4.52-8,11.25-8,6.52,0,13,2.46,19.76,7.51a1,1,0,0,0,.71.17.93.93,0,0,0,.63-.39l7.06-10a1,1,0,0,0-.18-1.29A42.71,42.71,0,0,0,226.52,46C210.91,46,200,55.4,200,68.81c0,14.38,9.41,19.46,25.66,23.39,13.84,3.19,16.17,5.86,16.17,10.63,0,5.29-4.72,8.58-12.32,8.58-8.44,0-15.32-2.84-23-9.51a1,1,0,0,0-.69-.23.94.94,0,0,0-.65.33l-7.92,9.42a.94.94,0,0,0,.09,1.31A47.19,47.19,0,0,0,229.2,125c16.82,0,27.69-9.19,27.69-23.42C256.89,89.52,249.71,82.87,232.09,78.59Z" transform="translate(-4.25 -1.28)"/><path class="cls-1" d="M295,64.33c-7.29,0-13.27,2.87-18.21,8.76V66.46a1,1,0,0,0-.95-.95H262.85a1,1,0,0,0-.95.95v73.6a1,1,0,0,0,.95.95H275.8a1,1,0,0,0,.95-.95V116.83A23.26,23.26,0,0,0,295,125.07c13.55,0,27.27-10.43,27.27-30.37S308.5,64.33,295,64.33ZM307.16,94.7c0,10.15-6.25,17.24-15.21,17.24s-15.53-7.41-15.53-17.24S283.1,77.46,292,77.46,307.16,84.71,307.16,94.7Z" transform="translate(-4.25 -1.28)"/><path class="cls-1" d="M357.37,64.33c-17.45,0-31.12,13.44-31.12,30.59,0,17,13.58,30.26,30.9,30.26,17.51,0,31.22-13.39,31.22-30.48S374.76,64.33,357.37,64.33Zm0,47.72c-9.28,0-16.28-7.46-16.28-17.34s6.75-17.13,16.06-17.13S373.54,85,373.54,94.92,366.74,112,357.37,112Z" transform="translate(-4.25 -1.28)"/><path class="cls-1" d="M425.64,65.51H411.4V50.94a1,1,0,0,0-.95-.95H397.51a1,1,0,0,0-.95.95V65.51h-6.23a1,1,0,0,0-.94.95V77.59a1,1,0,0,0,.94.95h6.23v28.79c0,11.63,5.79,17.53,17.21,17.53a23.62,23.62,0,0,0,12.13-3,.94.94,0,0,0,.48-.82v-10.6a.95.95,0,0,0-1.37-.85,16.32,16.32,0,0,1-7.6,1.83c-4.15,0-6-1.89-6-6.11V78.53h14.25a1,1,0,0,0,.94-.95V66.46A1,1,0,0,0,425.64,65.51Z" transform="translate(-4.25 -1.28)"/><path class="cls-1" d="M475.28,65.57V63.78c0-5.26,2-7.61,6.54-7.61a21.85,21.85,0,0,1,7.3,1.35.95.95,0,0,0,1.25-.9V45.7a1,1,0,0,0-.67-.91,35.53,35.53,0,0,0-10.76-1.55c-12,0-18.28,6.73-18.28,19.47v2.74h-6.22a1,1,0,0,0-1,.95V77.59a1,1,0,0,0,1,.95h6.22v44.41a1,1,0,0,0,.94.95h12.95a1,1,0,0,0,.95-.95V78.53h12.09l18.52,44.4c-2.1,4.67-4.17,5.59-7,5.59a14.93,14.93,0,0,1-7.14-2,1,1,0,0,0-.75-.07,1,1,0,0,0-.56.51l-4.39,9.63a.94.94,0,0,0,.41,1.22,27.26,27.26,0,0,0,13.83,3.54c9.56,0,14.84-4.45,19.5-16.43l22.46-58a.95.95,0,0,0-.88-1.29H528.11a1,1,0,0,0-.9.64l-13.81,39.44L498.28,66.18a.94.94,0,0,0-.88-.61Z" transform="translate(-4.25 -1.28)"/><rect class="cls-1" x="428.36" y="64.23" width="14.84" height="58.38" rx="0.95" ry="0.95"/><circle class="cls-1" cx="435.84" cy="47.8" r="9.29"/><path class="cls-1" d="M553.52,83.67a9.14,9.14,0,1,1,9.16-9.16A9.08,9.08,0,0,1,553.52,83.67Zm0-17.36a8.23,8.23,0,1,0,8.15,8.2A8.15,8.15,0,0,0,553.57,66.31Zm2,9.14,2.58,3.61H556l-2.32-3.31h-2v3.31h-1.82V69.49h4.26c2.22,0,3.68,1.14,3.68,3.05A2.85,2.85,0,0,1,555.59,75.44ZM554,71.13h-2.37v3H554c1.18,0,1.89-.58,1.89-1.51S555.23,71.13,554,71.13Z" transform="translate(-4.25 -1.28)"/></svg>