<?xml version="1.0" encoding="utf-8"?>
<!-- Generator: Adobe Illustrator 21.0.2, SVG Export Plug-In . SVG Version: 6.00 Build 0)  -->
<svg version="1.1"
	 id="svg11038" xmlns:cc="http://creativecommons.org/ns#" xmlns:dc="http://purl.org/dc/elements/1.1/" xmlns:rdf="http://www.w3.org/1999/02/22-rdf-syntax-ns#" xmlns:svg="http://www.w3.org/2000/svg"
	 xmlns="http://www.w3.org/2000/svg" xmlns:xlink="http://www.w3.org/1999/xlink" x="0px" y="0px" viewBox="0 0 988.8 128.9"
	 style="enable-background:new 0 0 988.8 128.9;" xml:space="preserve">
<style type="text/css">
	.st0{fill:#C0C0C0;}
</style>
<g id="layer1" transform="translate(858.00438,-193.12212)">
	<g id="g11594">
		<g id="g10482" transform="matrix(20.326751,0,0,-20.326751,-8.7527219,193.32539)">
			<path id="path10484" class="st0" d="M-8.4,0l-1.2,0v-6.3h5.7C-3.3-6.1-3-5.6-2.9-5.1h-5.5L-8.4,0z M0.9-1.3h4.7
				C6.2-1.1,6.7-0.6,6.9,0h-7.3C-0.3-0.6,0.2-1.1,0.9-1.3 M-14.4-1.2c0.7,0.2,1.2,0.7,1.3,1.2H-20v-3.7h5.7V-5l-4.4,0
				c-0.7-0.2-1.3-0.7-1.6-1.3l0.4,0h6.9v3.8h-5.7v1.3L-14.4-1.2L-14.4-1.2z M-0.2-6.3H1v2.5h4.5v-2.5h1.2v3.8l-6.9,0L-0.2-6.3
				L-0.2-6.3z M-29.5-1.3h4.7c0.7,0.1,1.1,0.7,1.3,1.3h-7.3C-30.7-0.5-30.2-1.1-29.5-1.3 M-41.8,0c0.1-0.6,0.6-1.1,1.3-1.3h2l0.1,0
				v-5h1.2v5l0.1,0h2c0.7,0.2,1.1,0.7,1.3,1.3v0L-41.8,0C-41.8,0-41.8,0-41.8,0z M-29.5-6.3h4.7c0.7,0.1,1.1,0.7,1.3,1.3h-7.3
				C-30.7-5.6-30.2-6.2-29.5-6.3 M-29.5-3.8h4.7c0.7,0.1,1.1,0.7,1.3,1.3h-7.3C-30.7-3-30.2-3.6-29.5-3.8"/>
		</g>
	</g>
</g>
</svg>
