<?xml version="1.0" encoding="utf-8"?>
<!-- Generator: Adobe Illustrator 16.0.0, SVG Export Plug-In . SVG Version: 6.00 Build 0)  -->
<!DOCTYPE svg PUBLIC "-//W3C//DTD SVG 1.1//EN" "http://www.w3.org/Graphics/SVG/1.1/DTD/svg11.dtd">
<svg version="1.1" id="Layer_1" xmlns:sketch="http://www.bohemiancoding.com/sketch/ns"
	 xmlns="http://www.w3.org/2000/svg" xmlns:xlink="http://www.w3.org/1999/xlink" x="0px" y="0px" width="140px" height="30px"
	 viewBox="0 0 140 30" enable-background="new 0 0 140 30" xml:space="preserve">
<g id="Page-1" sketch:type="MSPage">
	<g id="Talkdesk_logo" sketch:type="MSLayerGroup">
		<path id="Fill-1" sketch:type="MSShapeGroup" fill="#C0C0C0" d="M10.609,29.96c-2.824,0-7.1-1.089-7.1-7.423V11.848H0V9.912
			l3.509-0.363V3.659l2.703-0.121l0.565,5.849l6.938-0.081v2.542H6.938v10.287c0,3.992,1.896,4.92,4.074,4.92
			c0.928,0,2.179-0.16,3.227-0.443l0.564,2.663C13.271,29.799,11.698,29.96,10.609,29.96L10.609,29.96L10.609,29.96z M28.25,19.148
			c-5.204,0.041-8.875,1.09-8.875,4.236c0,2.582,1.695,3.993,4.316,3.993c1.573,0,3.227-0.483,4.559-1.855V19.148L28.25,19.148
			L28.25,19.148z M29.056,29.476c-0.121-0.403-0.241-0.928-0.363-1.411c-1.896,1.451-3.872,1.896-6.01,1.896
			c-3.954,0-6.777-2.501-6.777-6.495c0-4.921,5.244-6.574,12.344-6.695v-0.646c0-3.953-1.775-4.678-4.115-4.678
			c-1.17,0-3.106,0.363-4.558,0.847l-0.807-2.501c1.775-0.686,4.356-1.17,6.091-1.17c2.864,0,6.777,0.727,6.777,7.019v10.044
			c0,1.09,0.121,2.541,0.283,3.672L29.056,29.476L29.056,29.476L29.056,29.476z M40.696,29.96c-2.178,0-5.244-0.847-5.244-6.333
			V0.593l3.388-0.524v23.437c0,3.065,1.291,3.549,2.662,3.549c0.484,0,0.888-0.039,1.251-0.12l0.726,2.662
			C42.713,29.799,41.825,29.96,40.696,29.96L40.696,29.96L40.696,29.96z M58.664,29.355l-6.898-9.359h-2.138v9.359H46.24V0.593
			l3.389-0.524v18.475l8.793-9.237h3.993l-8.229,8.471l8.551,11.578H58.664L58.664,29.355L58.664,29.355z M77.172,12.413
			c-1.09-0.484-2.542-0.807-3.953-0.807c-3.832,0-6.536,2.219-6.536,7.664c0,5.486,2.865,7.463,5.891,7.463
			c1.694,0,3.349-0.726,4.599-1.814V12.413L77.172,12.413L77.172,12.413z M77.938,29.355l-0.12-1.332
			c-1.452,1.129-3.469,1.937-5.567,1.937c-5.002,0-9.036-3.349-9.036-10.69c0-7.301,4.074-10.689,9.964-10.689
			c1.372,0,2.824,0.282,3.994,0.726V0.593l3.429-0.524v29.286H77.938L77.938,29.355L77.938,29.355z M111.493,29.96
			c-2.662,0-4.276-0.484-5.769-1.049l0.404-2.743c1.451,0.686,3.025,1.09,5.162,1.09c2.543,0,4.922-0.848,4.922-3.389
			c0-0.727-0.322-1.332-1.25-2.057c-1.492-1.09-4.154-1.816-5.971-3.066c-1.572-1.09-2.299-2.623-2.299-4.397
			c0-3.55,2.864-5.729,6.373-5.729c1.937,0,3.227,0.282,4.681,0.888l-0.323,2.501c-1.09-0.444-2.22-0.686-3.874-0.686
			c-2.218,0-3.469,1.13-3.469,2.864c0,0.968,0.646,1.896,2.462,2.823c2.137,1.05,3.348,1.372,4.961,2.421
			c1.533,1.049,2.258,2.42,2.258,4.155C119.762,28.629,114.963,29.96,111.493,29.96L111.493,29.96L111.493,29.96z M135.909,29.355
			l-6.897-9.359h-2.139v9.359h-3.389V0.593l3.389-0.524v18.475l8.793-9.237h3.994l-8.229,8.471l8.552,11.578H135.909L135.909,29.355
			L135.909,29.355z"/>
		<path id="Fill-8" sketch:type="MSShapeGroup" fill="#C0C0C0" d="M97.514,18.118c0.037-1.714-0.725-4.533-3.848-4.533
			c-2.894,0-4.113,2.627-4.303,4.533H97.514L97.514,18.118z M89.363,21.394c0.113,3.353,2.703,4.8,5.712,4.8
			c2.171,0,3.695-0.344,5.144-0.838l0.686,3.199c-1.6,0.686-3.809,1.182-6.476,1.182c-6.019,0-9.561-3.695-9.561-9.371
			c0-5.142,3.122-9.979,9.065-9.979c6.018,0,7.999,4.952,7.999,9.028c0,0.875-0.077,1.561-0.153,1.979H89.363z M85.434,10.773
			c0.275-2.21,2.158-3.921,4.442-3.921h7.843c2.286,0,4.168,1.711,4.443,3.921h1.439c0.531,0,1.045,0.068,1.541,0.185v-0.791
			c0-3.712-3.01-6.722-6.723-6.722h-9.244c-3.713,0-6.723,3.01-6.723,6.722v0.791c0.496-0.117,1.01-0.185,1.541-0.185H85.434z"/>
	</g>
</g>
</svg>
