<svg id="Logo_FIXED" data-name="Logo — FIXED" xmlns="http://www.w3.org/2000/svg" viewBox="0 0 250 203.18"><defs><style>.cls-1{fill:silver;}</style></defs><title>Twitter</title><path class="cls-1" d="M78.62,203.18C173,203.18,224.56,125,224.56,57.24c0-2.22,0-4.43-.15-6.63A104.36,104.36,0,0,0,250,24.05a102.38,102.38,0,0,1-29.46,8.07A51.47,51.47,0,0,0,243.1,3.76a102.79,102.79,0,0,1-32.57,12.45A51.34,51.34,0,0,0,123.12,63,145.62,145.62,0,0,1,17.4,9.39,51.33,51.33,0,0,0,33.28,77.87,50.91,50.91,0,0,1,10,71.45c0,.21,0,.43,0,.65a51.31,51.31,0,0,0,41.15,50.28,51.21,51.21,0,0,1-23.16.88,51.35,51.35,0,0,0,47.92,35.62,102.92,102.92,0,0,1-63.7,22A104.41,104.41,0,0,1,0,180.14a145.21,145.21,0,0,0,78.62,23"/></svg>