<?xml version="1.0" encoding="utf-8"?>
<!-- Generator: Adobe Illustrator 16.0.0, SVG Export Plug-In . SVG Version: 6.00 Build 0)  -->
<!DOCTYPE svg PUBLIC "-//W3C//DTD SVG 1.1//EN" "http://www.w3.org/Graphics/SVG/1.1/DTD/svg11.dtd">
<svg version="1.1" id="Layer_1" xmlns="http://www.w3.org/2000/svg" xmlns:xlink="http://www.w3.org/1999/xlink" x="0px" y="0px"
	 width="155px" height="165px" viewBox="0 0 155 165" enable-background="new 0 0 155 165" xml:space="preserve">
<g>
	<polygon fill="#FF3855" points="55.883,162.749 76.083,142.547 96.283,162.749 104.701,154.331 76.083,125.714 47.465,154.331 	"/>
	<polygon fill="#FF3855" points="154.6,56.535 146.182,48.118 136.081,58.219 125.98,48.118 117.563,56.535 127.664,66.636 
		117.563,76.736 125.98,85.153 136.081,75.053 146.182,85.153 154.6,76.736 144.498,66.636 	"/>
	<path fill="#FF3855" d="M31,56v22H8V56H31 M38,49H1v37h37V49L38,49z"/>
	
		<rect x="12.735" y="115.096" transform="matrix(0.5626 0.8267 -0.8267 0.5626 111.4966 28.448)" fill="#EDEDEE" width="32.255" height="9"/>
	
		<rect x="122.137" y="103.469" transform="matrix(0.8266 0.5627 -0.5627 0.8266 89.2558 -50.5294)" fill="#EDEDEE" width="9" height="32.255"/>
	<polygon fill="#EDEDEE" points="40.416,36.689 35.457,29.178 76.244,2.251 112.479,29.329 107.092,36.538 75.923,13.247 	"/>
</g>
</svg>
