<?xml version="1.0" encoding="utf-8"?>
<!-- Generator: Adobe Illustrator 16.0.0, SVG Export Plug-In . SVG Version: 6.00 Build 0)  -->
<!DOCTYPE svg PUBLIC "-//W3C//DTD SVG 1.1//EN" "http://www.w3.org/Graphics/SVG/1.1/DTD/svg11.dtd">
<svg version="1.1" id="Layer_7" xmlns="http://www.w3.org/2000/svg" xmlns:xlink="http://www.w3.org/1999/xlink" x="0px" y="0px"
	 width="107px" height="340px" viewBox="0 0 107 340" enable-background="new 0 0 107 340" xml:space="preserve">
<path fill="#FF3855" d="M55.957,87.128l21.915,35.829l-35.829,21.915l-21.915-35.829L55.957,87.128 M60.595,67.88L0.88,104.405
	l36.525,59.715l59.715-36.525L60.595,67.88L60.595,67.88z"/>
<path fill="#FF3855" d="M97.396,312.867l-9.95,17.107l-17.107-9.949l9.95-17.107L97.396,312.867 M106.415,310.482l-28.513-16.583
	L61.32,322.411l28.513,16.582L106.415,310.482L106.415,310.482z"/>
<polygon fill="#FF3855" points="94.938,185.242 81.809,205.158 61.5,191.771 55.973,200.155 84.797,219.158 103.453,190.857 "/>
<polygon fill="#FF3855" points="15.69,19.999 39.057,15.2 43.95,39.026 53.788,37.006 46.843,3.187 13.64,10.007 "/>
<polygon fill="#FF3855" points="45.666,240.138 37.863,232.334 28.5,241.696 19.137,232.334 11.334,240.138 20.697,249.5 
	11.334,258.862 19.137,266.666 28.5,257.304 37.863,266.666 45.666,258.862 36.303,249.5 "/>
</svg>
