<?xml version="1.0" encoding="utf-8"?>
<!-- Generator: Adobe Illustrator 16.0.0, SVG Export Plug-In . SVG Version: 6.00 Build 0)  -->
<!DOCTYPE svg PUBLIC "-//W3C//DTD SVG 1.1//EN" "http://www.w3.org/Graphics/SVG/1.1/DTD/svg11.dtd">
<svg version="1.1" id="Layer_1__x2B__Group_1_xA0_Image_1_"
	 xmlns="http://www.w3.org/2000/svg" xmlns:xlink="http://www.w3.org/1999/xlink" x="0px" y="0px" width="175px" height="143px"
	 viewBox="0 0 175 143" enable-background="new 0 0 175 143" xml:space="preserve">
<polygon id="arrow-24" fill="#121952" points="46.968,27.16 54.205,14.604 78.718,29.23 93.342,4.716 105.674,12.328 83.664,48.799 
	"/>
<polygon id="arrow-24_1_" fill="#121952" points="2.893,83.734 6.839,76.891 20.202,84.861 28.172,71.5 34.894,75.648 
	22.896,95.527 "/>
<polygon id="plus-1" fill="#121952" points="92.543,108.463 82.942,98.861 92.543,89.26 86.145,82.861 76.543,92.463 66.943,82.861 
	60.543,89.26 70.145,98.861 60.543,108.463 66.943,114.861 76.543,105.26 86.145,114.861 "/>
<path fill="#121952" d="M136.716,41.534l16.687,16.129L137.275,74.35l-16.687-16.13L136.716,41.534 M136.627,36.233L115.288,58.31
	l22.078,21.338l21.339-22.081L136.627,36.233L136.627,36.233z"/>
<path fill="#121952" d="M151.716,104.16l16.687,16.129l-16.127,16.688l-16.687-16.129L151.716,104.16 M151.627,98.859
	l-21.339,22.078l22.078,21.338l21.339-22.08L151.627,98.859L151.627,98.859z"/>
</svg>
