<?xml version="1.0" encoding="utf-8"?>
<!-- Generator: Adobe Illustrator 16.0.0, SVG Export Plug-In . SVG Version: 6.00 Build 0)  -->
<!DOCTYPE svg PUBLIC "-//W3C//DTD SVG 1.1//EN" "http://www.w3.org/Graphics/SVG/1.1/DTD/svg11.dtd">
<svg version="1.1" id="Layer_2_xA0_Image_1_" xmlns="http://www.w3.org/2000/svg" xmlns:xlink="http://www.w3.org/1999/xlink"
	 x="0px" y="0px" width="49.2px" height="67.44px" viewBox="0 0 49.2 67.44" enable-background="new 0 0 49.2 67.44"
	 xml:space="preserve">
<polygon fill="#00E5D4" points="32.472,26.135 37.313,26.176 37.262,32.108 39.279,32.124 39.35,23.72 32.494,23.663 "/>
<polygon fill="#00E5D4" points="12.25,36.909 10.091,34.75 7.5,37.341 4.91,34.75 2.75,36.909 5.341,39.5 2.75,42.09 4.91,44.25 
	7.5,41.659 10.091,44.25 12.25,42.09 9.66,39.5 "/>
<path fill="#00E5D4" d="M40.656,47.651l3.014,11.125l-11.124,3.015l-3.015-11.125L40.656,47.651 M43.358,42.936l-18.542,5.026
	l5.026,18.543l18.543-5.026L43.358,42.936L43.358,42.936z"/>
<path fill="#00E5D4" d="M10.303,8.717l-2.699,4.706l-4.706-2.699l2.699-4.706L10.303,8.717 M12.771,8.047L4.928,3.549l-4.499,7.844
	l7.844,4.499L12.771,8.047L12.771,8.047z"/>
<path fill="#00E5D4" d="M46.339,7.574l-4.593,2.886L38.86,5.867l4.594-2.886L46.339,7.574 M48.834,8.142l-4.813-7.655l-7.656,4.811
	l4.813,7.656L48.834,8.142L48.834,8.142z"/>
</svg>
