<?xml version="1.0" encoding="utf-8"?>
<!-- Generator: Adobe Illustrator 16.0.0, SVG Export Plug-In . SVG Version: 6.00 Build 0)  -->
<!DOCTYPE svg PUBLIC "-//W3C//DTD SVG 1.1//EN" "http://www.w3.org/Graphics/SVG/1.1/DTD/svg11.dtd">
<svg version="1.1" id="Layer_3_copy_4_xA0_Image_1_"
	 xmlns="http://www.w3.org/2000/svg" xmlns:xlink="http://www.w3.org/1999/xlink" x="0px" y="0px" width="61.2px" height="58.32px"
	 viewBox="0 0 61.2 58.32" enable-background="new 0 0 61.2 58.32" xml:space="preserve">
<polygon fill="#00E5D4" points="46.454,7.1 54.147,5.053 56.192,12.747 59.399,11.895 56.5,0.996 45.602,3.894 "/>
<polygon fill="#00E5D4" points="15.512,43.188 17.978,38.934 22.231,41.401 23.26,39.628 17.234,36.134 13.74,42.16 "/>
<polygon fill="#00E5D4" points="51.58,50.484 49.516,48.421 47.041,50.897 44.564,48.421 42.5,50.484 44.977,52.96 42.5,55.437 
	44.564,57.5 47.041,55.023 49.516,57.5 51.58,55.437 49.103,52.96 "/>
<path fill="#00E5D4" d="M15.34,4.708L18.052,15.9L6.86,18.612L4.148,7.42L15.34,4.708 M17.652,0.917L0.357,5.108l4.19,17.295
	l17.295-4.19L17.652,0.917L17.652,0.917z"/>
<path fill="#00E5D4" d="M42.014,28.712l-2.966,4.861l-4.861-2.965l2.965-4.861L42.014,28.712 M44.148,28.195l-7.513-4.583
	l-4.582,7.512l7.512,4.583L44.148,28.195L44.148,28.195z"/>
</svg>
