<?xml version="1.0" encoding="UTF-8" standalone="no"?>
<svg width="32px" height="32px" viewBox="0 0 32 32" version="1.1" xmlns="http://www.w3.org/2000/svg" xmlns:xlink="http://www.w3.org/1999/xlink">
    <!-- Generator: sketchtool 40.2 (33826) - http://www.bohemiancoding.com/sketch -->
    <title>B8B9FB01-161D-46F1-9F03-AE7C6D600E1E</title>
    <desc>Created with sketchtool.</desc>
    <defs></defs>
    <g id="landingpage" stroke="none" stroke-width="1" fill="none" fill-rule="evenodd">
        <g id="home" transform="translate(-763.000000, -2639.000000)">
            <g id="contacts-footer" transform="translate(0.000000, 2506.000000)">
                <g id="fb" transform="translate(763.000000, 133.000000)">
                    <polygon id="Fill-1" fill-opacity="0.7" fill="#121952" points="0 32 32 32 32 0 0 0"></polygon>
                    <path d="M27.16368,18.9586 L27.75568,14.3666 L23.20848,14.3666 L23.20848,11.4346 C23.20848,10.1054 23.57928,9.1994 25.48568,9.1994 L27.91528,9.1978 L27.91528,5.091 C27.49568,5.035 26.05368,4.9098 24.37248,4.9098 C20.86648,4.9098 18.46768,7.0502 18.46768,10.9806 L18.46768,14.3666 L14.50208,14.3666 L14.50208,18.9586 L18.46768,18.9586 L18.46768,29.1406 L23.20848,29.1406 L23.20848,18.9586 L27.16368,18.9586 Z" id="Fill-2" fill="#FFFFFF"></path>
                </g>
            </g>
        </g>
    </g>
</svg>