<?xml version="1.0" encoding="UTF-8" standalone="no"?>
<svg width="32px" height="32px" viewBox="0 0 32 32" version="1.1" xmlns="http://www.w3.org/2000/svg" xmlns:xlink="http://www.w3.org/1999/xlink">
    <!-- Generator: sketchtool 40.2 (33826) - http://www.bohemiancoding.com/sketch -->
    <title>60FF198E-CD65-41F4-9A4D-1B4FA6F5E0E2</title>
    <desc>Created with sketchtool.</desc>
    <defs></defs>
    <g id="landingpage" stroke="none" stroke-width="1" fill="none" fill-rule="evenodd">
        <g id="home" transform="translate(-853.000000, -2639.000000)">
            <g id="contacts-footer" transform="translate(0.000000, 2506.000000)">
                <g id="instagram" transform="translate(853.000000, 133.000000)">
                    <polygon id="Fill-1" fill-opacity="0.7" fill="#121952" points="0 32 32 32 32 0 0 0"></polygon>
                    <g id="Group-8" transform="translate(5.000000, 5.000000)" fill="#FFFFFF">
                        <path d="M11.3212105,0.0238026316 C8.29160526,0.0238026316 7.91186842,0.0368289474 6.72213158,0.0909078947 C5.53476316,0.144986842 4.72397368,0.333671053 4.01423684,0.609592105 C3.28081579,0.894592105 2.65871053,1.27590789 2.03857895,1.89603947 C1.41844737,2.51617105 1.03713158,3.13827632 0.752131579,3.87169737 C0.476210526,4.58143421 0.287921053,5.39222368 0.233447368,6.57959211 C0.179368421,7.76932895 0.166342105,8.14906579 0.166342105,11.1786711 C0.166342105,14.2078816 0.179368421,14.5880132 0.233447368,15.77775 C0.287921053,16.9651184 0.476210526,17.7759079 0.752131579,18.48525 C1.03713158,19.2190658 1.41844737,19.8411711 2.03857895,20.4613026 C2.65871053,21.0814342 3.28081579,21.46275 4.01423684,21.74775 C4.72397368,22.0236711 5.53476316,22.2119605 6.72213158,22.2660395 C7.91186842,22.3205132 8.29160526,22.3331447 11.3212105,22.3331447 C14.3508158,22.3331447 14.7305526,22.3205132 15.9202895,22.2660395 C17.1076579,22.2119605 17.9184474,22.0236711 18.6281842,21.74775 C19.3616053,21.46275 19.9837105,21.0814342 20.6038421,20.4613026 C21.2239737,19.8411711 21.6052895,19.2190658 21.8902895,18.48525 C22.1662105,17.7759079 22.3545,16.9651184 22.4089737,15.77775 C22.4630526,14.5880132 22.4760789,14.2078816 22.4760789,11.1786711 C22.4760789,8.14906579 22.4630526,7.76932895 22.4089737,6.57959211 C22.3545,5.39222368 22.1662105,4.58143421 21.8902895,3.87169737 C21.6052895,3.13827632 21.2239737,2.51617105 20.6038421,1.89603947 C19.9837105,1.27590789 19.3616053,0.894592105 18.6281842,0.609592105 C17.9184474,0.333671053 17.1076579,0.144986842 15.9202895,0.0909078947 C14.7305526,0.0368289474 14.3508158,0.0238026316 11.3212105,0.0238026316 M11.3212105,2.03380263 C14.2995,2.03380263 14.6523947,2.04485526 15.8287105,2.09853947 C16.9162105,2.14827632 17.5067368,2.32985526 17.8998947,2.48261842 C18.4205526,2.68511842 18.7923947,2.92669737 19.1823947,3.31709211 C19.5727895,3.70748684 19.8147632,4.07932895 20.0168684,4.59998684 C20.1696316,4.99275 20.3516053,5.58367105 20.4009474,6.67117105 C20.4546316,7.84748684 20.4660789,8.19998684 20.4660789,11.1786711 C20.4660789,14.1569605 20.4546316,14.5098553 20.4009474,15.6861711 C20.3516053,16.7736711 20.1696316,17.3641974 20.0168684,17.7573553 C19.8147632,18.2780132 19.5727895,18.6494605 19.1823947,19.0398553 C18.7923947,19.43025 18.4205526,19.6718289 17.8998947,19.8743289 C17.5067368,20.0270921 16.9162105,20.2086711 15.8287105,20.2584079 C14.6527895,20.3120921 14.2998947,20.3235395 11.3212105,20.3235395 C8.34252632,20.3235395 7.98963158,20.3120921 6.81371053,20.2584079 C5.72621053,20.2086711 5.13568421,20.0270921 4.74252632,19.8743289 C4.22186842,19.6718289 3.85002632,19.43025 3.46002632,19.0398553 C3.06963158,18.6494605 2.82765789,18.2780132 2.62555263,17.7573553 C2.47278947,17.3641974 2.29081579,16.7736711 2.24147368,15.6861711 C2.18778947,14.5098553 2.17634211,14.1569605 2.17634211,11.1786711 C2.17634211,8.19998684 2.18778947,7.84748684 2.24147368,6.67117105 C2.29081579,5.58367105 2.47278947,4.99275 2.62555263,4.59998684 C2.82765789,4.07932895 3.06963158,3.70748684 3.46002632,3.31709211 C3.85002632,2.92669737 4.22186842,2.68511842 4.74252632,2.48261842 C5.13568421,2.32985526 5.72621053,2.14827632 6.81371053,2.09853947 C7.99002632,2.04485526 8.34292105,2.03380263 11.3212105,2.03380263" id="Fill-2"></path>
                        <path d="M11.3212105,14.8968553 C9.26778947,14.8968553 7.60278947,13.23225 7.60278947,11.1784342 C7.60278947,9.12501316 9.26778947,7.46040789 11.3212105,7.46040789 C13.3746316,7.46040789 15.0396316,9.12501316 15.0396316,11.1784342 C15.0396316,13.23225 13.3746316,14.8968553 11.3212105,14.8968553 M11.3212105,5.45040789 C8.15778947,5.45040789 5.59318421,8.01501316 5.59318421,11.1784342 C5.59318421,14.34225 8.15778947,16.9068553 11.3212105,16.9068553 C14.4846316,16.9068553 17.0492368,14.34225 17.0492368,11.1784342 C17.0492368,8.01501316 14.4846316,5.45040789 11.3212105,5.45040789" id="Fill-4"></path>
                        <path d="M18.6142105,5.22414474 C18.6142105,5.96348684 18.015,6.56269737 17.2756579,6.56269737 C16.5363158,6.56269737 15.9371053,5.96348684 15.9371053,5.22414474 C15.9371053,4.48480263 16.5363158,3.88559211 17.2756579,3.88559211 C18.015,3.88559211 18.6142105,4.48480263 18.6142105,5.22414474" id="Fill-6"></path>
                    </g>
                </g>
            </g>
        </g>
    </g>
</svg>