<?xml version="1.0" encoding="UTF-8" standalone="no"?>
<svg width="32px" height="32px" viewBox="0 0 32 32" version="1.1" xmlns="http://www.w3.org/2000/svg" xmlns:xlink="http://www.w3.org/1999/xlink">
    <!-- Generator: sketchtool 40.2 (33826) - http://www.bohemiancoding.com/sketch -->
    <title>5C435DD9-6941-4310-BB01-A34A98A1665D</title>
    <desc>Created with sketchtool.</desc>
    <defs></defs>
    <g id="landingpage" stroke="none" stroke-width="1" fill="none" fill-rule="evenodd">
        <g id="home" transform="translate(-897.000000, -2639.000000)">
            <g id="contacts-footer" transform="translate(0.000000, 2506.000000)">
                <g id="linkedin" transform="translate(897.000000, 133.000000)">
                    <polygon id="Fill-1" fill-opacity="0.7" fill="#121952" points="0 32 32.0004246 32 32.0004246 0 0 0"></polygon>
                    <g id="Group-6" transform="translate(5.736842, 5.484132)" fill="#FFFFFF">
                        <path d="M2.45321053,0.296644737 C3.79492105,0.296644737 4.88321053,1.38611842 4.88321053,2.72585526 C4.88321053,4.06717105 3.79492105,5.15664474 2.45321053,5.15664474 C1.10636842,5.15664474 0.0204473684,4.06717105 0.0204473684,2.72585526 C0.0204473684,1.38611842 1.10636842,0.296644737 2.45321053,0.296644737 L2.45321053,0.296644737 Z M0.353210526,20.4830921 L4.55044737,20.4830921 L4.55044737,6.99967105 L0.353210526,6.99967105 L0.353210526,20.4830921 Z" id="Fill-2"></path>
                        <path d="M7.18160526,6.99963158 L11.2012105,6.99963158 L11.2012105,8.84265789 L11.2580526,8.84265789 C11.817,7.78160526 13.1859474,6.6645 15.2259474,6.6645 C19.4685789,6.6645 20.2537105,9.45568421 20.2537105,13.0872632 L20.2537105,20.4830526 L16.0639737,20.4830526 L16.0639737,13.9276579 C16.0639737,12.3625263 16.0331842,10.3509474 13.8846316,10.3509474 C11.7021316,10.3509474 11.3697632,12.0542368 11.3697632,13.812 L11.3697632,20.4830526 L7.18160526,20.4830526 L7.18160526,6.99963158 Z" id="Fill-4"></path>
                    </g>
                </g>
            </g>
        </g>
    </g>
</svg>