<?xml version="1.0" encoding="UTF-8" standalone="no"?>
<svg width="32px" height="32px" viewBox="0 0 32 32" version="1.1" xmlns="http://www.w3.org/2000/svg" xmlns:xlink="http://www.w3.org/1999/xlink">
    <!-- Generator: sketchtool 40.2 (33826) - http://www.bohemiancoding.com/sketch -->
    <title>DCA30968-30DD-40B3-A681-71EB2B6C35D0</title>
    <desc>Created with sketchtool.</desc>
    <defs></defs>
    <g id="landingpage" stroke="none" stroke-width="1" fill="none" fill-rule="evenodd">
        <g id="home" transform="translate(-809.000000, -2639.000000)">
            <g id="contacts-footer" transform="translate(0.000000, 2506.000000)">
                <g id="twitter" transform="translate(809.000000, 133.000000)">
                    <polygon id="Fill-1" fill-opacity="0.7" fill="#121952" points="0 32.0003158 32 32.0003158 32 0.000315789473 0 0.000315789473"></polygon>
                    <path d="M26.57875,10.1183026 C25.8488816,10.4419868 25.0645395,10.6606711 24.2419079,10.7589605 C25.0819079,10.2552763 25.7280921,9.45869737 26.0308553,8.50817105 C25.2457237,8.97435526 24.3753289,9.31343421 23.4480921,9.49580263 C22.7051974,8.70435526 21.6476974,8.21053947 20.4776974,8.21053947 C18.2304605,8.21053947 16.40875,10.0326447 16.40875,12.2794868 C16.40875,12.5988289 16.4450658,12.9086974 16.51375,13.2063289 C13.1328289,13.0373816 10.1351974,11.4177763 8.12796053,8.95501316 C7.77822368,9.55698684 7.57730263,10.2552763 7.57730263,11.0009342 C7.57730263,12.4121184 8.29532895,13.6583026 9.38677632,14.3873816 C8.72006579,14.3668553 8.09282895,14.1825132 7.54414474,13.8781711 L7.54414474,13.9294868 C7.54414474,15.9004079 8.94703947,17.5452763 10.8074342,17.9190921 C10.4667763,18.0118553 10.1059868,18.0627763 9.73532895,18.0627763 C9.47401316,18.0627763 9.21822368,18.0363289 8.97032895,17.9885658 C9.48782895,19.6054079 10.9901974,20.7809342 12.7704605,20.8148816 C11.3790132,21.9059342 9.62480263,22.5564605 7.71703947,22.5564605 C7.38940789,22.5564605 7.06572368,22.5363289 6.74756579,22.4996184 C8.54796053,23.6530395 10.6866447,24.3268553 12.9851974,24.3268553 C20.4682237,24.3268553 24.5608553,18.1283026 24.5608553,12.7508026 C24.5608553,12.5751447 24.5561184,12.3994868 24.5494079,12.2238289 C25.3428289,11.6510658 26.0320395,10.9346184 26.57875,10.1183026" id="Fill-2" fill="#FFFFFF"></path>
                </g>
            </g>
        </g>
    </g>
</svg>